<svg xmlns="http://www.w3.org/2000/svg" xmlns:xlink="http://www.w3.org/1999/xlink" viewBox="0 0 1127.88 670.27"><defs><style>.cls-1{isolation:isolate;}.cls-2{fill:url(#linear-gradient);}.cls-3{font-size:24px;}.cls-20,.cls-3{fill:#606060;}.cls-20,.cls-28,.cls-3{font-family:Roboto-Medium, Roboto;font-weight:500;}.cls-4{letter-spacing:1.12em;}.cls-5{letter-spacing:0.87em;}.cls-6{letter-spacing:-0.01em;}.cls-7{letter-spacing:-0.01em;}.cls-8{letter-spacing:-0.04em;}.cls-9{letter-spacing:-0.01em;}.cls-10{letter-spacing:0.3em;}.cls-11{letter-spacing:1.83em;}.cls-12{letter-spacing:1.93em;}.cls-13{letter-spacing:1.6em;}.cls-14{letter-spacing:1.83em;}.cls-15{letter-spacing:1.81em;}.cls-16{letter-spacing:-0.01em;}.cls-17{letter-spacing:1.84em;}.cls-18{font-size:28px;font-family:Roboto-Black, Roboto;font-weight:800;}.cls-18,.cls-28,.cls-35{fill:#0a8080;}.cls-19{letter-spacing:0.02em;}.cls-20,.cls-28{font-size:16px;}.cls-21{letter-spacing:0.13em;}.cls-22{letter-spacing:0.13em;}.cls-23{letter-spacing:-0.19em;}.cls-24{letter-spacing:-0.05em;}.cls-25{letter-spacing:-0.05em;}.cls-26{letter-spacing:-0.05em;}.cls-27{letter-spacing:-0.02em;}.cls-28{letter-spacing:0.1em;}.cls-29{letter-spacing:0.05em;}.cls-30{letter-spacing:0.1em;}.cls-31{fill:none;}.cls-32{fill:#555;}.cls-33{fill:#1c2880;}.cls-34{fill:#3878df;}.cls-36{mix-blend-mode:multiply;}.cls-37{fill:#d7d7d7;}.cls-38{fill:#fff;}.cls-39{fill:#1d1d1b;}.cls-40{fill:#ffce1b;}.cls-41{fill:#242424;}.cls-42{fill:url(#linear-gradient-2);}.cls-43{fill:url(#linear-gradient-3);}.cls-44{fill:url(#linear-gradient-4);}.cls-45{fill:url(#linear-gradient-5);}.cls-46{fill:url(#linear-gradient-6);}.cls-47{fill:url(#linear-gradient-7);}.cls-48{fill:url(#linear-gradient-8);}.cls-49{fill:url(#linear-gradient-9);}.cls-50{fill:url(#linear-gradient-10);}.cls-51{fill:url(#linear-gradient-11);}.cls-52{fill:url(#linear-gradient-12);}.cls-53{fill:url(#linear-gradient-13);}.cls-54{fill:url(#linear-gradient-14);}.cls-55{fill:url(#linear-gradient-15);}.cls-56{fill:url(#linear-gradient-16);}.cls-57{fill:url(#linear-gradient-17);}.cls-58{fill:url(#linear-gradient-18);}.cls-59{fill:url(#linear-gradient-19);}.cls-60{fill:url(#linear-gradient-20);}.cls-61{fill:url(#linear-gradient-21);}.cls-62{fill:url(#linear-gradient-22);}.cls-63{fill:url(#linear-gradient-23);}.cls-64{fill:url(#linear-gradient-24);}.cls-65{fill:url(#linear-gradient-25);}.cls-66{fill:url(#linear-gradient-26);}.cls-67{fill:url(#linear-gradient-27);}</style><linearGradient id="linear-gradient" x1="1034.54" y1="676.57" x2="568.02" y2="338.1" gradientUnits="userSpaceOnUse"><stop offset="0" stop-color="#ededed"/><stop offset="1" stop-color="#fff"/></linearGradient><linearGradient id="linear-gradient-2" x1="810.29" y1="506.32" x2="779.61" y2="592.92" gradientUnits="userSpaceOnUse"><stop offset="0" stop-color="#0a8080"/><stop offset="1" stop-color="#1c2880"/></linearGradient><linearGradient id="linear-gradient-3" x1="884.74" y1="532.7" x2="854.06" y2="619.3" xlink:href="#linear-gradient-2"/><linearGradient id="linear-gradient-4" x1="822.62" y1="510.69" x2="791.94" y2="597.29" xlink:href="#linear-gradient-2"/><linearGradient id="linear-gradient-5" x1="847.22" y1="519.41" x2="816.54" y2="606.01" xlink:href="#linear-gradient-2"/><linearGradient id="linear-gradient-6" x1="863.08" y1="525.03" x2="832.4" y2="611.63" xlink:href="#linear-gradient-2"/><linearGradient id="linear-gradient-7" x1="773.06" y1="493.14" x2="742.38" y2="579.73" xlink:href="#linear-gradient-2"/><linearGradient id="linear-gradient-8" x1="778.66" y1="495.12" x2="747.98" y2="581.72" xlink:href="#linear-gradient-2"/><linearGradient id="linear-gradient-9" x1="908.69" y1="541.19" x2="878.01" y2="627.79" xlink:href="#linear-gradient-2"/><linearGradient id="linear-gradient-10" x1="851.5" y1="520.93" x2="820.82" y2="607.52" xlink:href="#linear-gradient-2"/><linearGradient id="linear-gradient-11" x1="860.71" y1="524.19" x2="830.03" y2="610.78" xlink:href="#linear-gradient-2"/><linearGradient id="linear-gradient-12" x1="821.18" y1="510.18" x2="790.5" y2="596.78" gradientUnits="userSpaceOnUse"><stop offset="0" stop-color="#0a8080"/><stop offset="0.32" stop-color="#106380"/><stop offset="1" stop-color="#1c2880"/></linearGradient><linearGradient id="linear-gradient-13" x1="831.72" y1="513.92" x2="801.04" y2="600.52" xlink:href="#linear-gradient-2"/><linearGradient id="linear-gradient-14" x1="837.07" y1="515.81" x2="806.39" y2="602.41" xlink:href="#linear-gradient-2"/><linearGradient id="linear-gradient-15" x1="832.02" y1="514.02" x2="801.34" y2="600.62" xlink:href="#linear-gradient-2"/><linearGradient id="linear-gradient-16" x1="881.71" y1="531.63" x2="851.03" y2="618.23" xlink:href="#linear-gradient-2"/><linearGradient id="linear-gradient-17" x1="778.55" y1="495.08" x2="747.87" y2="581.68" xlink:href="#linear-gradient-2"/><linearGradient id="linear-gradient-18" x1="917.58" y1="544.34" x2="886.9" y2="630.93" xlink:href="#linear-gradient-2"/><linearGradient id="linear-gradient-19" x1="928.56" y1="548.23" x2="897.88" y2="634.82" xlink:href="#linear-gradient-2"/><linearGradient id="linear-gradient-20" x1="747.13" y1="483.95" x2="716.45" y2="570.55" xlink:href="#linear-gradient-2"/><linearGradient id="linear-gradient-21" x1="769.89" y1="492.01" x2="739.21" y2="578.61" xlink:href="#linear-gradient-2"/><linearGradient id="linear-gradient-22" x1="948.62" y1="555.33" x2="917.94" y2="641.93" xlink:href="#linear-gradient-2"/><linearGradient id="linear-gradient-23" x1="930.42" y1="548.89" x2="899.74" y2="635.48" xlink:href="#linear-gradient-2"/><linearGradient id="linear-gradient-24" x1="941.68" y1="552.87" x2="910.99" y2="639.47" xlink:href="#linear-gradient-2"/><linearGradient id="linear-gradient-25" x1="947.81" y1="555.05" x2="917.13" y2="641.64" xlink:href="#linear-gradient-2"/><linearGradient id="linear-gradient-26" x1="761.29" y1="488.96" x2="730.61" y2="575.56" xlink:href="#linear-gradient-2"/><linearGradient id="linear-gradient-27" x1="751.35" y1="485.44" x2="720.66" y2="572.04" xlink:href="#linear-gradient-2"/></defs><g class="cls-1"><g id="Layer_1" data-name="Layer 1"><rect class="cls-2" width="1127.88" height="670.27"/><text class="cls-3" transform="translate(77.69 363.75)">F1<tspan class="cls-4" x="27.56" y="0">	</tspan><tspan x="60.33" y="0">= Reset</tspan><tspan x="0" y="30.8">F2 </tspan><tspan class="cls-5" x="33.54" y="30.8">	</tspan><tspan x="60.33" y="30.8">= Cash Drawer Open </tspan><tspan x="0" y="61.6">F3 </tspan><tspan class="cls-5" x="33.54" y="61.6">	</tspan><tspan x="60.33" y="61.6">= </tspan><tspan class="cls-6" x="79.97" y="61.6">P</tspan><tspan class="cls-7" x="95.34" y="61.6">a</tspan><tspan x="108.21" y="61.6">yment </tspan><tspan class="cls-8" x="181.86" y="61.6">T</tspan><tspan x="194.72" y="61.6">ype</tspan><tspan x="0" y="92.4">F4 </tspan><tspan class="cls-5" x="33.54" y="92.4">	</tspan><tspan x="60.33" y="92.4">= Special Discount </tspan><tspan x="0" y="123.2">F5 </tspan><tspan class="cls-5" x="33.54" y="123.2">	</tspan><tspan x="60.33" y="123.2">= E</tspan><tspan class="cls-9" x="93.88" y="123.2">x</tspan><tspan x="105.8" y="123.2">change</tspan><tspan x="0" y="154">F6 </tspan><tspan class="cls-5" x="33.54" y="154">	</tspan><tspan x="60.33" y="154">= Item Search</tspan><tspan x="0" y="184.8">F8 </tspan><tspan class="cls-5" x="33.54" y="184.8">	</tspan><tspan x="60.33" y="184.8">= Quantity Change</tspan><tspan x="0" y="215.6">F9 </tspan><tspan class="cls-5" x="33.54" y="215.6">	</tspan><tspan x="60.33" y="215.6">= In</tspan><tspan class="cls-7" x="100.47" y="215.6">v</tspan><tspan x="112.44" y="215.6">oice Hold </tspan><tspan x="0" y="246.4">F10 </tspan><tspan class="cls-10" x="47.18" y="246.4">	</tspan><tspan x="60.33" y="246.4">= Recall In</tspan><tspan class="cls-7" x="173.13" y="246.4">v</tspan><tspan x="185.11" y="246.4">oice</tspan></text><text class="cls-3" transform="translate(407.19 363.75)">Alt + B<tspan class="cls-11" x="70.73" y="0">	</tspan><tspan x="120.66" y="0">= Barcode</tspan><tspan x="0" y="30.8">Alt + L</tspan><tspan class="cls-12" x="68.34" y="30.8">	</tspan><tspan x="120.66" y="30.8">= Session Log out</tspan><tspan x="0" y="61.6">Alt + M</tspan><tspan class="cls-13" x="76.38" y="61.6">	</tspan><tspan x="120.66" y="61.6">= Customer</tspan><tspan x="0" y="92.4">Alt + P</tspan><tspan class="cls-14" x="70.86" y="92.4">	</tspan><tspan x="120.66" y="92.4">= Sales Receipt Print</tspan><tspan x="0" y="123.2">Alt + R</tspan><tspan class="cls-15" x="71.25" y="123.2">	</tspan><tspan x="120.66" y="123.2">= Cash Recei</tspan><tspan class="cls-16" x="260.78" y="123.2">v</tspan><tspan x="272.78" y="123.2">ed</tspan><tspan x="0" y="154">Alt + C</tspan><tspan class="cls-17" x="70.62" y="154">	</tspan><tspan x="120.66" y="154">= Custom Create</tspan></text><text class="cls-18" transform="translate(77.69 312.29)">Sho<tspan class="cls-19" x="49.05" y="0">r</tspan><tspan x="60.35" y="0">tcuts</tspan></text><text class="cls-18" transform="translate(77.69 176.46)">About Company</text><text class="cls-20" transform="translate(77.69 208.52)">iBOS<tspan class="cls-21" x="35.38" y="0"> </tspan><tspan x="41.41" y="0">Limited,</tspan><tspan class="cls-22" x="98.98" y="0"> </tspan><tspan x="105" y="0">the</tspan><tspan class="cls-21" x="128.09" y="0"> </tspan><tspan x="134.12" y="0">Concern</tspan><tspan class="cls-21" x="193.88" y="0"> </tspan><tspan x="199.91" y="0">of</tspan><tspan class="cls-21" x="214.59" y="0"> </tspan><tspan x="220.61" y="0">AKIJ</tspan><tspan class="cls-21" x="254.81" y="0"> </tspan><tspan x="260.83" y="0">group,</tspan><tspan class="cls-22" x="306.23" y="0"> </tspan><tspan x="312.25" y="0">is</tspan><tspan class="cls-21" x="324.72" y="0"> </tspan><tspan x="330.74" y="0">the</tspan><tspan class="cls-21" x="353.84" y="0"> </tspan><tspan x="359.86" y="0">powerhouse</tspan><tspan class="cls-22" x="447.92" y="0"> </tspan><tspan x="453.95" y="0">of</tspan><tspan class="cls-21" x="468.63" y="0"> </tspan><tspan x="474.65" y="0">Intelligent</tspan><tspan class="cls-21" x="546.95" y="0"> </tspan><tspan x="552.97" y="0">Business</tspan><tspan class="cls-21" x="618.92" y="0"> </tspan><tspan x="624.95" y="0">Solutions.</tspan><tspan class="cls-21" x="697.91" y="0"> </tspan><tspan x="703.93" y="0">ER</tspan><tspan class="cls-23" x="723.8" y="0">P</tspan><tspan x="731.06" y="0">,</tspan><tspan class="cls-22" x="734.67" y="0"> </tspan><tspan x="740.7" y="0">POS,</tspan><tspan class="cls-21" x="775.63" y="0"> </tspan><tspan class="cls-24" x="781.65" y="0">V</tspan><tspan x="790.99" y="0">AT </tspan><tspan x="0" y="19.2">Management,</tspan><tspan class="cls-25" x="98.63" y="19.2"> </tspan><tspan x="101.87" y="19.2">to</tspan><tspan class="cls-26" x="116.49" y="19.2"> </tspan><tspan class="cls-27" x="119.72" y="19.2">R</tspan><tspan x="130" y="19.2">TM</tspan><tspan class="cls-25" x="153.27" y="19.2"> </tspan><tspan x="156.5" y="19.2">and</tspan><tspan class="cls-26" x="183.33" y="19.2"> </tspan><tspan x="186.57" y="19.2">HRMS,</tspan><tspan class="cls-25" x="236.22" y="19.2"> </tspan><tspan x="239.45" y="19.2">iBOS</tspan><tspan class="cls-25" x="274.84" y="19.2"> </tspan><tspan x="278.07" y="19.2">has</tspan><tspan class="cls-26" x="304.16" y="19.2"> </tspan><tspan x="307.39" y="19.2">come</tspan><tspan class="cls-25" x="347.23" y="19.2"> </tspan><tspan x="350.47" y="19.2">with</tspan><tspan class="cls-26" x="381.19" y="19.2"> </tspan><tspan x="384.43" y="19.2">the</tspan><tspan class="cls-25" x="407.52" y="19.2"> </tspan><tspan x="410.75" y="19.2">most</tspan><tspan class="cls-26" x="447.61" y="19.2"> </tspan><tspan x="450.85" y="19.2">ad</tspan><tspan class="cls-7" x="468.61" y="19.2">v</tspan><tspan x="476.6" y="19.2">anced</tspan><tspan class="cls-25" x="520.29" y="19.2"> </tspan><tspan x="523.52" y="19.2">business</tspan><tspan class="cls-25" x="588.29" y="19.2"> </tspan><tspan x="591.52" y="19.2">solutions</tspan><tspan class="cls-26" x="658.27" y="19.2"> </tspan><tspan x="661.51" y="19.2">that</tspan><tspan class="cls-25" x="690.4" y="19.2"> </tspan><tspan x="693.63" y="19.2">can</tspan><tspan class="cls-26" x="719.79" y="19.2"> </tspan><tspan x="723.03" y="19.2">simplify</tspan><tspan class="cls-25" x="780.5" y="19.2"> </tspan><tspan x="783.73" y="19.2">and </tspan><tspan x="0" y="38.4">streamline business process of any organization. </tspan></text><text class="cls-28" transform="translate(978.31 50.28)">ww<tspan class="cls-29" x="27.11" y="0">w</tspan><tspan class="cls-30" x="39.89" y="0">.ibos.io</tspan></text><rect class="cls-31" x="14.28" y="5.52" width="149.39" height="95.29"/><path class="cls-32" d="M57.75,69.24H55.27l-.5,1.48H53.69L56,64.38h1l2.3,6.34H58.25Zm-2.17-.89h1.87l-.92-2.7h0Z" transform="translate(14.28 5.52)"/><path class="cls-32" d="M60.89,66l.06.68a1.75,1.75,0,0,1,.58-.57,1.6,1.6,0,0,1,.79-.2,1.49,1.49,0,0,1,1.15.45,2,2,0,0,1,.41,1.39v3H62.82v-3A1,1,0,0,0,62.6,67a.89.89,0,0,0-.67-.22,1.12,1.12,0,0,0-.55.13,1.21,1.21,0,0,0-.4.38v3.42H59.92V66Z" transform="translate(14.28 5.52)"/><path class="cls-32" d="M70.77,69.24H68.29l-.5,1.48H66.72l2.33-6.34h1l2.3,6.34H71.28Zm-2.17-.89h1.87l-.91-2.7h0Z" transform="translate(14.28 5.52)"/><path class="cls-32" d="M74.88,68h-.73v2.74H73.09V64.38h1.06v2.69h.6l2-2.69H78l-2.31,3,2.48,3.31H76.88Z" transform="translate(14.28 5.52)"/><path class="cls-32" d="M80,70.72H78.9V64.38H80Z" transform="translate(14.28 5.52)"/><path class="cls-32" d="M84,64.38h1.06v4.51a1.79,1.79,0,0,1-.57,1.4,2.06,2.06,0,0,1-1.46.52,2.29,2.29,0,0,1-1.51-.47A1.66,1.66,0,0,1,81,69v0h1a1,1,0,0,0,.27.79A1,1,0,0,0,83,70a.91.91,0,0,0,.69-.29,1.08,1.08,0,0,0,.28-.79Z" transform="translate(14.28 5.52)"/><path class="cls-32" d="M93.25,68.62v0a2,2,0,0,1-.63,1.57,2.45,2.45,0,0,1-1.74.6,2.33,2.33,0,0,1-1.8-.75,2.65,2.65,0,0,1-.7-1.91V67A2.72,2.72,0,0,1,89.08,65a2.29,2.29,0,0,1,1.78-.75,2.49,2.49,0,0,1,1.77.59,2,2,0,0,1,.63,1.58v0h-1a1.22,1.22,0,0,0-1.37-1.35,1.22,1.22,0,0,0-1,.51,2.12,2.12,0,0,0-.38,1.29v1.21a2.09,2.09,0,0,0,.39,1.3,1.25,1.25,0,0,0,1,.51,1.35,1.35,0,0,0,1-.35,1.4,1.4,0,0,0,.34-1Z" transform="translate(14.28 5.52)"/><path class="cls-32" d="M94,68.32a2.57,2.57,0,0,1,.58-1.73,2,2,0,0,1,1.58-.67,2,2,0,0,1,1.59.67,2.6,2.6,0,0,1,.58,1.73v.09a2.56,2.56,0,0,1-.58,1.73,2.21,2.21,0,0,1-3.17,0A2.53,2.53,0,0,1,94,68.41Zm1.06.09a2.09,2.09,0,0,0,.27,1.12.91.91,0,0,0,.84.43.9.9,0,0,0,.82-.43,2,2,0,0,0,.28-1.12v-.09A2,2,0,0,0,97,67.21a1,1,0,0,0-1.66,0A2.07,2.07,0,0,0,95,68.32Z" transform="translate(14.28 5.52)"/><path class="cls-32" d="M100.18,66l0,.61a1.69,1.69,0,0,1,.58-.52,1.73,1.73,0,0,1,.81-.18,1.43,1.43,0,0,1,.79.21,1.28,1.28,0,0,1,.5.63,1.52,1.52,0,0,1,1.41-.84,1.37,1.37,0,0,1,1.12.49,2.24,2.24,0,0,1,.41,1.47v2.84h-1.06V67.88a1.37,1.37,0,0,0-.2-.85.78.78,0,0,0-.62-.24.93.93,0,0,0-.58.18,1,1,0,0,0-.34.49v.12a.28.28,0,0,1,0,.09v3H102V67.88a1.33,1.33,0,0,0-.21-.84.76.76,0,0,0-.62-.25,1.15,1.15,0,0,0-.55.12.84.84,0,0,0-.35.35v3.46H99.21V66Z" transform="translate(14.28 5.52)"/><path class="cls-32" d="M111.09,68.52a2.66,2.66,0,0,1-.48,1.66,1.59,1.59,0,0,1-1.34.63,1.73,1.73,0,0,1-.71-.14,1.49,1.49,0,0,1-.54-.43v2.29h-1V66h.89l.1.59a1.66,1.66,0,0,1,.55-.51,1.58,1.58,0,0,1,.74-.17,1.57,1.57,0,0,1,1.36.69,3.13,3.13,0,0,1,.48,1.82Zm-1-.09a2.27,2.27,0,0,0-.27-1.18.87.87,0,0,0-.81-.46,1,1,0,0,0-.57.14,1.07,1.07,0,0,0-.37.39v2.13a1.12,1.12,0,0,0,.37.38A1.14,1.14,0,0,0,109,70a.9.9,0,0,0,.81-.4,1.8,1.8,0,0,0,.27-1Z" transform="translate(14.28 5.52)"/><path class="cls-32" d="M114.85,70.72c0-.12-.07-.24-.09-.35a2,2,0,0,1-.05-.34,2,2,0,0,1-.57.56,1.48,1.48,0,0,1-.8.22,1.57,1.57,0,0,1-1.13-.38,1.38,1.38,0,0,1-.39-1,1.22,1.22,0,0,1,.54-1.06,2.55,2.55,0,0,1,1.52-.38h.82v-.42a.75.75,0,0,0-.22-.58,1,1,0,0,0-1.19,0,.52.52,0,0,0-.22.45h-1v0a1.16,1.16,0,0,1,.5-1,2.09,2.09,0,0,1,1.38-.43,2,2,0,0,1,1.32.42,1.47,1.47,0,0,1,.51,1.2v2.1a3.24,3.24,0,0,0,0,.55,3.13,3.13,0,0,0,.12.53ZM113.56,70a1.39,1.39,0,0,0,.72-.2,1,1,0,0,0,.42-.46v-.69h-.84a1,1,0,0,0-.72.23.67.67,0,0,0-.26.53.53.53,0,0,0,.17.43A.73.73,0,0,0,113.56,70Z" transform="translate(14.28 5.52)"/><path class="cls-32" d="M117.83,66l.06.68a1.75,1.75,0,0,1,.58-.57,1.6,1.6,0,0,1,.79-.2,1.49,1.49,0,0,1,1.15.45,2,2,0,0,1,.41,1.39v3h-1.06v-3a1,1,0,0,0-.22-.76.9.9,0,0,0-.67-.22,1.12,1.12,0,0,0-.55.13,1.21,1.21,0,0,0-.4.38v3.42h-1.06V66Z" transform="translate(14.28 5.52)"/><path class="cls-32" d="M123.48,68.83l.11.47h0l1-3.29h1.16l-2,5.42a2.39,2.39,0,0,1-.52.84,1.26,1.26,0,0,1-1,.35l-.29,0-.28-.06.11-.82h.32a.58.58,0,0,0,.46-.2,1.71,1.71,0,0,0,.28-.45l.18-.43L121.43,66h1.16Z" transform="translate(14.28 5.52)"/><path id="Path_10070" data-name="Path 10070" class="cls-33" d="M123,45.25a6.16,6.16,0,0,0-1.46-1.09,9.26,9.26,0,0,0-1.66-.78l-1.66-.61a7.14,7.14,0,0,1-1.41-.63,3.43,3.43,0,0,1-1-.77,1.74,1.74,0,0,1-.38-1.09,3.41,3.41,0,0,1,.22-1.13,3.59,3.59,0,0,1,.61-.91,3,3,0,0,1,.94-.64,3.3,3.3,0,0,1,1.34-.22,3.74,3.74,0,0,1,1.47.29,6.46,6.46,0,0,1,1.08.55l.83.53a1.67,1.67,0,0,0,.76.25,1.69,1.69,0,0,0,.74-.16,1.9,1.9,0,0,0,.6-.52l1.7-2.42a8.71,8.71,0,0,0-1.2-1A7.15,7.15,0,0,0,123,34a11.22,11.22,0,0,0-1.77-.61,9.83,9.83,0,0,0-5.65.48,8.6,8.6,0,0,0-2.77,1.84,8.36,8.36,0,0,0-1.66,2.64,8.23,8.23,0,0,0-.55,3.11,6,6,0,0,0,.37,2.3,4.76,4.76,0,0,0,2.37,2.64,10.16,10.16,0,0,0,1.66.72l1.66.54a4.8,4.8,0,0,1,1.35.62,3.17,3.17,0,0,1,.93.94,2.88,2.88,0,0,1,.4,1.12,3,3,0,0,1-.83,2.4,3.22,3.22,0,0,1-2.32.85,4.39,4.39,0,0,1-1.67-.33,5.15,5.15,0,0,1-1.26-.71l-.94-.74a1.57,1.57,0,0,0-.94-.34,1.68,1.68,0,0,0-1.32.71c-.64.87-1.31,1.76-2,2.64a6.06,6.06,0,0,0,1.43,1.29,8.8,8.8,0,0,0,1.79,1,10.93,10.93,0,0,0,2,.64,10.35,10.35,0,0,0,5.93-.46,8.61,8.61,0,0,0,2.89-2,9.08,9.08,0,0,0,1.72-2.8,8.84,8.84,0,0,0,.63-3.49,5.69,5.69,0,0,0-.4-2.11A5.26,5.26,0,0,0,123,45.25Z" transform="translate(14.28 5.52)"/><path id="Path_10072" data-name="Path 10072" class="cls-34" d="M53.61,57.54H59l2-17.17H55.65Z" transform="translate(14.28 5.52)"/><path class="cls-33" d="M82.81,37.46a5.91,5.91,0,0,0-5.6-4H66.71l-2.86,24.1h9.49c3.38-.09,5.29-.81,7-2.57,2.09-2.09,2-6.26.86-7.83a5.25,5.25,0,0,0-2.89-2h0a5.88,5.88,0,0,0,3-1.55C83.59,41.4,82.94,37.85,82.81,37.46ZM73.29,53.52H69.74l.76-6.38h4.07a1.94,1.94,0,0,1,1.67.69,3.66,3.66,0,0,1,.3,3.66A3.4,3.4,0,0,1,73.29,53.52ZM77.7,40.37a3.26,3.26,0,0,1-3.29,3.21l-3.49,0,.73-6.14h3.61a2.18,2.18,0,0,1,1.61.64A3.13,3.13,0,0,1,77.7,40.37Z" transform="translate(14.28 5.52)"/><path class="cls-33" d="M48.55,59.83A12.51,12.51,0,0,1,36.08,71.47a12.25,12.25,0,0,1-9.72-4.63,14.37,14.37,0,0,1-2.77-7.19c0-.23,0-.95,0-1.08A13,13,0,0,1,24.23,55L35.31,23.74A8.55,8.55,0,0,1,40,35L35.07,46.5c.33,0,.67,0,1,0A12.5,12.5,0,0,1,48.5,57.56H41.73a5.83,5.83,0,1,0,.11,2.27Z" transform="translate(14.28 5.52)"/><path class="cls-34" d="M28.82,32.91,25,51.2l.63-19.55a8.29,8.29,0,0,1,2.1.66A7.09,7.09,0,0,1,28.82,32.91Z" transform="translate(14.28 5.52)"/><path class="cls-34" d="M30.56,32.45l1.3-4.65a7.8,7.8,0,0,0-1.74-1.14,7.12,7.12,0,0,0-1.21-.49L28,31A11,11,0,0,1,30.56,32.45Z" transform="translate(14.28 5.52)"/><ellipse class="cls-34" cx="73.21" cy="40.96" rx="3" ry="3.02"/><path id="Path_10071" data-name="Path 10071" class="cls-33" d="M106.88,39.66A10.49,10.49,0,0,0,105,36.33,9.23,9.23,0,0,0,102,34a9.37,9.37,0,0,0-3.89-.85c-5.71.09-10.67,4.3-12.09,10.28a16.63,16.63,0,0,0-.43,3.79,13.88,13.88,0,0,0,.66,4.25,10.71,10.71,0,0,0,2.1,3.32,9.05,9.05,0,0,0,3.07,2.3,9.39,9.39,0,0,0,4,.84A10.51,10.51,0,0,0,101,56.62,11.59,11.59,0,0,0,104.34,54a13.25,13.25,0,0,0,1.86-2.84A15.11,15.11,0,0,0,107.59,44,15.57,15.57,0,0,0,106.88,39.66Zm-4.78,8.23a10.26,10.26,0,0,1-1.25,3,5.93,5.93,0,0,1-5.06,2.63,5.23,5.23,0,0,1-2.17-.47A4.68,4.68,0,0,1,92,51.72a5.74,5.74,0,0,1-1-2.06A9.84,9.84,0,0,1,90.69,47a17.69,17.69,0,0,1,.5-3.91,9.07,9.07,0,0,1,1.25-3,6.2,6.2,0,0,1,2.15-2,5.71,5.71,0,0,1,2.85-.7,4.83,4.83,0,0,1,2.18.46,4.74,4.74,0,0,1,1.59,1.33,6.05,6.05,0,0,1,1,2.1,9.13,9.13,0,0,1,.33,2.65A28.82,28.82,0,0,1,102.1,47.89Z" transform="translate(14.28 5.52)"/><path class="cls-33" d="M723.23,64.11c-.84,25.8-19.66,45.87-42,44.82l-111.39-5.2-2.64-.13-1,0-1.6-.07-7.72-.36-6.94-.33h-.21l-2.62-.12h-.19l-169.18-7.9-.9,0c.84-25.8,19.66-45.87,42-44.82l118.41,5.53,2.83.13,3.65.17h0l3.16.15,3.5.16,1.42.07,2.56.12h.15l2.55.11,29,1.36,2.56.12.32,0,2.54.11,130.84,6.12Z" transform="translate(14.28 5.52)"/><path class="cls-35" d="M722.59,56v3.22a45.07,45.07,0,0,1-.26,4.82,43.55,43.55,0,0,1-43.27,38.71H377.41V99.57a45.07,45.07,0,0,1,.26-4.82A43.55,43.55,0,0,1,420.94,56Z" transform="translate(14.28 5.52)"/><g class="cls-36"><path class="cls-37" d="M426.86,90.69c-.33-.19-1.05-.67-2.14-1.43,2.06-2.51,3.09-5.87,3.09-10.05q0-7.06-3.84-10.85t-10.89-3.79l-1,0q-6.23.25-9.8,3.86-3.85,3.87-3.86,10.87,0,7.22,4.41,11.2a14.19,14.19,0,0,0,9.25,3.34l.94,0a20.25,20.25,0,0,0,5.89-.76,11.22,11.22,0,0,0,1.38-.5,29.64,29.64,0,0,0,2.51,1.85c.68.46,1.37.89,2.05,1.28q.79.45,1.59.84l2.43-4.91C428,91.3,427.37,91,426.86,90.69ZM418,84.77l-1-.63-.58-.41a17.49,17.49,0,0,0-1.94-1.22,7.57,7.57,0,0,0-1.81-.52l-.22.51-1.15,2.64a10.91,10.91,0,0,1,3.48,2,7.59,7.59,0,0,1-1.68.18,7.5,7.5,0,0,1-1-.07,5.13,5.13,0,0,1-3.38-1.81q-1.59-1.87-1.59-6.52,0-4,1.63-5.85a5.18,5.18,0,0,1,3.27-1.81,6,6,0,0,1,1-.07,5.5,5.5,0,0,1,4.4,1.84c1.06,1.22,1.59,3.27,1.59,6.13A11.88,11.88,0,0,1,418,84.77Z" transform="translate(14.28 5.52)"/><path class="cls-37" d="M451,65.05V82.34A4.94,4.94,0,0,1,449.69,86a4.79,4.79,0,0,1-3.55,1.29,7.85,7.85,0,0,1-1-.07A4.43,4.43,0,0,1,442.57,86a4.91,4.91,0,0,1-1.28-3.62V65.05h-8.74V81.94a16.94,16.94,0,0,0,.81,4.79A9.06,9.06,0,0,0,435.22,90a10.37,10.37,0,0,0,3,2.44,11.85,11.85,0,0,0,4.09,1.15c1.23.14,2.39.24,3.47.27l1,0a17.66,17.66,0,0,0,6.13-.95,9.73,9.73,0,0,0,3.51-2.34,10.22,10.22,0,0,0,2.46-3.91,14.28,14.28,0,0,0,.78-4.74V65.05Z" transform="translate(14.28 5.52)"/><path class="cls-37" d="M465.86,65.05V93.4h8.78V65.05Z" transform="translate(14.28 5.52)"/><path class="cls-37" d="M499.79,81.8c0,.19-.09.38-.14.56a8.15,8.15,0,0,1-1.73,3.54,4.88,4.88,0,0,1-3.8,1.41,7.34,7.34,0,0,1-1-.07,4.65,4.65,0,0,1-3.06-1.68q-1.43-1.75-1.43-6.46,0-3.81,1.2-5.58a5,5,0,0,1,3.53-2.32,6.83,6.83,0,0,1,1-.08,5.18,5.18,0,0,1,2.38.55,5,5,0,0,1,1.8,1.54,5.84,5.84,0,0,1,.71,1.48c.05.13.09.27.14.42l7.73-1.72a12.7,12.7,0,0,0-4.55-6.65q-3.06-2.17-8.42-2.17l-1,0q-6.15.25-9.62,3.76-3.74,3.78-3.74,10.81A16,16,0,0,0,482,87.81a12,12,0,0,0,5.06,4.73,17,17,0,0,0,6.5,1.32l1,0a15.54,15.54,0,0,0,6.28-1.1A10.7,10.7,0,0,0,505,89.51a14,14,0,0,0,2.43-5.39Z" transform="translate(14.28 5.52)"/><path class="cls-37" d="M531,75.75l10.35-10.7H529.69l-9.18,10.71V65.05h-8.75V93.4h8.75V86.48l3.23-3.38,1.3-1.36,6,11.66H541.8Z" transform="translate(14.28 5.52)"/></g><g class="cls-36"><path class="cls-37" d="M601.82,65.05v7h8.93V93.4h8.76V72.05h8.93v-7Z" transform="translate(14.28 5.52)"/><path class="cls-37" d="M632.75,65.05V93.4h8.78V65.05Z" transform="translate(14.28 5.52)"/><path class="cls-37" d="M669.46,67.32q-2.37-2.26-7.13-2.27H647.77V93.4h8.8V82.88h4.8q5.29,0,7.87-2.42a8.7,8.7,0,0,0,2.59-6.71A8.45,8.45,0,0,0,669.46,67.32Zm-10.74,9.82h-2.15V70.82h2.5c1.63,0,2.75.3,3.34.92A3.18,3.18,0,0,1,663.3,74a2.83,2.83,0,0,1-1,2.25A5.53,5.53,0,0,1,658.72,77.14Z" transform="translate(14.28 5.52)"/><path class="cls-37" d="M699.46,80a8.61,8.61,0,0,0-3.61-3.14,36.74,36.74,0,0,0-8.23-2.51,7.19,7.19,0,0,1-2.94-1,1.6,1.6,0,0,1-.64-1.22,2,2,0,0,1,.78-1.57,2.62,2.62,0,0,1,1.33-.57,4.82,4.82,0,0,1,1-.08,4.47,4.47,0,0,1,2.91.87,4.37,4.37,0,0,1,1.36,2.67s0,.07,0,.11l8.25-.48q-.54-4.41-3.39-6.43t-8.28-2l-1,0A16.17,16.17,0,0,0,681,65.68a8.33,8.33,0,0,0-3.81,3.06,7.38,7.38,0,0,0-1.27,4.13,6.93,6.93,0,0,0,2.48,5.47c1.63,1.43,4.37,2.57,8.21,3.44,2.35.51,3.84,1.06,4.49,1.64a2.52,2.52,0,0,1,0,4,4.25,4.25,0,0,1-2.89.88,6.19,6.19,0,0,1-1-.07,4.41,4.41,0,0,1-2.89-1.65,6.4,6.4,0,0,1-1.1-3.09l-2,.12-6.35.4A11,11,0,0,0,678,91.1q2.58,2.57,9,2.76l1.06,0a17.11,17.11,0,0,0,6.83-1.19,9.43,9.43,0,0,0,4.21-3.49,9,9,0,0,0,1.51-5A7.91,7.91,0,0,0,699.46,80Z" transform="translate(14.28 5.52)"/></g><path class="cls-38" d="M424.87,90.69c-.34-.19-1.06-.67-2.15-1.43,2.06-2.51,3.09-5.87,3.09-10.05q0-7.06-3.83-10.85-3.57-3.51-9.88-3.77l-1,0q-6.91,0-10.78,3.88t-3.85,10.87q0,7.22,4.4,11.2,3.73,3.36,10.19,3.36l1.06,0a17.1,17.1,0,0,0,6.21-1.24c.17.15.37.31.62.5.48.36,1.11.81,1.9,1.35a28.75,28.75,0,0,0,3.63,2.12l.41-.84,2-4.07C426.05,91.3,425.37,91,424.87,90.69ZM416,84.77l-1-.63a23.87,23.87,0,0,0-2.52-1.63h0a7.61,7.61,0,0,0-1.78-.51l-1.37,3.15a10.69,10.69,0,0,1,3.48,2,4.64,4.64,0,0,1-.65.11,6.94,6.94,0,0,1-1,.07,5.41,5.41,0,0,1-4.35-1.88q-1.59-1.87-1.59-6.52c0-2.65.55-4.6,1.63-5.85a5.33,5.33,0,0,1,4.23-1.88,7,7,0,0,1,1,.07A5.24,5.24,0,0,1,415.46,73c1.06,1.22,1.6,3.27,1.6,6.13a14.39,14.39,0,0,1-.6,4.56A5.91,5.91,0,0,1,416,84.77Z" transform="translate(14.28 5.52)"/><path class="cls-38" d="M449,65.05V82.34A4.94,4.94,0,0,1,447.69,86a4.38,4.38,0,0,1-2.55,1.22,6.45,6.45,0,0,1-1,.07A4.8,4.8,0,0,1,440.57,86a5,5,0,0,1-1.28-3.62V65.05h-8.74V81.94a16.94,16.94,0,0,0,.81,4.79A9.1,9.1,0,0,0,433.23,90a10.34,10.34,0,0,0,3,2.44,11.85,11.85,0,0,0,4.09,1.15,39.35,39.35,0,0,0,4.52.29l1,0a16.46,16.46,0,0,0,5.18-.93,9.78,9.78,0,0,0,3.5-2.34,10.22,10.22,0,0,0,2.46-3.91,14.28,14.28,0,0,0,.78-4.74V65.05Z" transform="translate(14.28 5.52)"/><path class="cls-38" d="M463.86,65.05V93.4h8.78V65.05Z" transform="translate(14.28 5.52)"/><path class="cls-38" d="M499.65,82.36l-1.86-.56a8.74,8.74,0,0,1-1.87,4.1,4.42,4.42,0,0,1-2.76,1.34,8.47,8.47,0,0,1-1,.07,4.94,4.94,0,0,1-4-1.75q-1.43-1.75-1.43-6.46,0-3.81,1.2-5.58a5.14,5.14,0,0,1,4.56-2.4,6,6,0,0,1,1,.08,4.88,4.88,0,0,1,1.41.47,5,5,0,0,1,1.8,1.54,6.48,6.48,0,0,1,.85,1.9l1.86-.42,5.87-1.3a12.7,12.7,0,0,0-4.55-6.65,13.53,13.53,0,0,0-7.39-2.15l-1,0q-6.84,0-10.58,3.78T477.9,79.16A16.07,16.07,0,0,0,480,87.81a12,12,0,0,0,5.06,4.73,18.3,18.3,0,0,0,7.55,1.34l.95,0a14.36,14.36,0,0,0,5.32-1.08A10.63,10.63,0,0,0,503,89.51a14.17,14.17,0,0,0,2.44-5.39Z" transform="translate(14.28 5.52)"/><path class="cls-38" d="M529,75.75l10.35-10.7H527.69l-7.18,8.38-2,2.33V65.05h-8.75V93.4h8.75V86.48L523,81.74l.7,1.36L529,93.4H539.8Z" transform="translate(14.28 5.52)"/><path class="cls-38" d="M599.82,65.05v7h8.93V93.4h8.76V72.05h8.93v-7Z" transform="translate(14.28 5.52)"/><path class="cls-38" d="M630.75,65.05V93.4h8.78V65.05Z" transform="translate(14.28 5.52)"/><path class="cls-38" d="M667.46,67.32c-1.58-1.51-4-2.27-7.13-2.27H645.78V93.4h8.79V82.88h4.8q5.29,0,7.88-2.42a8.73,8.73,0,0,0,2.58-6.71A8.45,8.45,0,0,0,667.46,67.32Zm-12.89,9.82V70.82h2.5c1.63,0,2.75.3,3.34.92A3.14,3.14,0,0,1,661.3,74a2.85,2.85,0,0,1-1,2.25,5.58,5.58,0,0,1-3.56.88Z" transform="translate(14.28 5.52)"/><path class="cls-38" d="M697.46,80a8.61,8.61,0,0,0-3.61-3.14,36.74,36.74,0,0,0-8.23-2.51,7.31,7.31,0,0,1-2.94-1,1.59,1.59,0,0,1-.63-1.22,2,2,0,0,1,.77-1.57,3.45,3.45,0,0,1,2.3-.65,5.59,5.59,0,0,1,1,.08,3.79,3.79,0,0,1,1.88.79,4.46,4.46,0,0,1,1.38,2.78l2-.11,6.28-.37q-.54-4.41-3.4-6.43a13.41,13.41,0,0,0-7.32-2l-1,0a17.83,17.83,0,0,0-7,1.11,8.38,8.38,0,0,0-3.81,3.06A7.44,7.44,0,0,0,674,72.87a6.92,6.92,0,0,0,2.47,5.47c1.64,1.43,4.38,2.57,8.22,3.44,2.34.51,3.84,1.06,4.48,1.64a2.52,2.52,0,0,1,0,4,3.61,3.61,0,0,1-1.87.81,6.63,6.63,0,0,1-1,.07,4.61,4.61,0,0,1-3.86-1.72,6.27,6.27,0,0,1-1.09-3,.5.5,0,0,0,0-.12l-8.33.52A11.06,11.06,0,0,0,676,91.1q2.79,2.78,10,2.78l.93,0a16,16,0,0,0,5.89-1.17,9.45,9.45,0,0,0,4.22-3.49,9,9,0,0,0,1.51-5A7.91,7.91,0,0,0,697.46,80Z" transform="translate(14.28 5.52)"/><g class="cls-36"><path class="cls-37" d="M566.25,68.4h0l0,0h0l.06,0Zm27.11-5A21.37,21.37,0,0,0,591.49,58,20.17,20.17,0,0,0,590.4,56h-2.65c-.29-.39-.61-.77-.93-1.14a21.25,21.25,0,0,0-9.13-7.09,21,21,0,0,0-6.55-1.5,21.38,21.38,0,0,0-15.75,8.6l0,0h0c-.26.35-.51.72-.75,1.09l-.13.2a21,21,0,0,0-1.7,3.34,21.31,21.31,0,0,0-1.38,10.82,34.15,34.15,0,0,1,.2,6.67l-.67,10.08L550.82,89l0,.36a1.47,1.47,0,0,0-.63.41l0,0a1.33,1.33,0,0,0-.3.56l0,.17a1.47,1.47,0,0,0,.67,1.46l-.1.84,0,.16c0,.26-.07.51-.1.77s-.07.48-.11.71a1.7,1.7,0,0,0-.88.5,1.43,1.43,0,0,0-.3.57,1.5,1.5,0,0,0,.74,1.68q-.06.51-.09,1c-.05.59-.07,1.15-.07,1.7a1.65,1.65,0,0,0-.61.43,1.18,1.18,0,0,0-.3.56,1.5,1.5,0,0,0,1,1.82l.2.07s0,0,0,0h0a8.69,8.69,0,0,0,.31,1.06,8.8,8.8,0,0,0,5.52,5.34,11.86,11.86,0,0,0,2.46.66,9.17,9.17,0,0,0,4-1.69l.53.19a1.48,1.48,0,0,0,1.81-1,1.53,1.53,0,0,0-.19-1.18,18.73,18.73,0,0,0,1.6-2.19,1.45,1.45,0,0,0,1.28-.36l2.64.13a1.38,1.38,0,0,0,.59-.82l0-.13a1.47,1.47,0,0,0-.31-1.18c.45-.7.91-1.4,1.4-2.08l.1-.14A1.51,1.51,0,0,0,573,98.3a1.6,1.6,0,0,0,0-.65l8-9.05a34.63,34.63,0,0,1,3.1-3.07c.48-.42,1-.84,1.52-1.25a21.4,21.4,0,0,0,7.72-20.85Zm-21.65,6Zm7.72-3.4h0l0,0Zm-13.17,2.36h0Zm-.06,0h0l-.05,0,.05,0Zm4.07,1.72.28.11Zm-4-1.69h0l0,0h0l.06,0Zm20.57-13.51c.27.37.54.75.78,1.14h.15C587.46,55.64,587.14,55.26,586.82,54.89Z" transform="translate(14.28 5.52)"/><path class="cls-37" d="M583.49,37.13l-1.9,4.7a1.34,1.34,0,0,1,.08-.63c.64-1.57,1.27-3.14,1.91-4.7A1.36,1.36,0,0,1,583.49,37.13Z" transform="translate(14.28 5.52)"/><path class="cls-37" d="M560.05,42l-2-4.66a1.33,1.33,0,0,1-.09-.68l2,4.67A1.2,1.2,0,0,1,560.05,42Z" transform="translate(14.28 5.52)"/></g><path class="cls-39" d="M579.5,67a.74.74,0,0,0,0-.14,2.37,2.37,0,0,0-.17-.41c0-.06-.07-.12-.11-.17v0a4.43,4.43,0,0,0-.29-.42,1.47,1.47,0,0,0-.1-.13l0-.07s0,0,0-.05l-.07-.08-.18-.18,0,0a1.68,1.68,0,0,0-.21-.18l-.05,0L578,65l-.05,0-.23-.11-.13-.05-.14,0a2,2,0,0,0-1.88.42h0l-.1.11h0l-.22.24-.13.15-.14.16c-.2.24-.41.49-.62.77l-.12.15-.11.15-.24.32-.15.21-.17.25-.13.18,0,0-.17.24-.2.3-.25.38q-.26.39-.51.81l-.26.42c-.09.14-.18.29-.26.44h0c-1.24-.47-2.4-.93-2.74-1.07h-.06l-.81-.31-.19-.08-.21-.08-.23-.09-.73-.29-.25-.1-.19-.08h0l-.06,0h0c0-.16.07-.32.1-.47l.09-.4s0-.06,0-.08l.09-.47.06-.29a2.74,2.74,0,0,1,.05-.28c0-.09,0-.19,0-.28s0-.17.05-.26l0-.22c0-.07,0-.14,0-.21l.06-.41,0-.2a2,2,0,0,1,0-.26l0-.26.06-.51c0-.16,0-.32,0-.48,0-.49.06-.95.06-1.37h0a.68.68,0,0,0,0-.12s0,0,0-.06h0v0s0,0,0,0,0,0,0-.06a2.05,2.05,0,0,0-.2-.48l0-.06-.07-.1-.07-.09-.06-.07-.06-.07-.06,0a1.69,1.69,0,0,0-.36-.27l0,0-.06,0a2.66,2.66,0,0,0-.58-.21,2.72,2.72,0,0,0-.71-.07h-.24l-.13,0-.12,0-.13,0h-.08l-.07,0-.16,0-.37.1a2.87,2.87,0,0,0-1.83,2.45c0,.08,0,.17,0,.25s0,.09,0,.13a2.45,2.45,0,0,0,0,.27.53.53,0,0,0,0,.13v.12a.86.86,0,0,0,0,.16,7.36,7.36,0,0,0,.33,2.19,5.67,5.67,0,0,0,.27.73,1.42,1.42,0,0,0,.08.18l.07.14s.05.09.07.14l.09.13a2.2,2.2,0,0,0,.21.32l.06.07a.31.31,0,0,0,.09.11.27.27,0,0,0,.07.08.52.52,0,0,0,.1.11l.08.08.1.09.06,0,.08.06h0a.18.18,0,0,0,.07,0l.1.07.07,0,.06,0,.13.07.85.37q-.2.81-.42,1.65c0,.13-.07.25-.1.38-.14.51-.28,1-.43,1.55-.08.25-.15.5-.22.75s-.1.31-.14.47-.19.6-.28.9c-.2.65-.4,1.29-.61,1.94-.08.26-.17.53-.26.8-.25.76-.5,1.51-.76,2.27-.08.22-.16.45-.23.67l-.24.67c-.1.3-.21.59-.31.88s-.31.88-.47,1.31l-.12.32c-.32.89-.64,1.75-1,2.58l-.23.6c-.18.48-.36,1-.54,1.42l-.1.27-.21.53-.46,1.19c0,.09-.08.18-.11.27l0,.06c0,.1-.08.2-.11.3l-.35.88c0,.09-.08.18-.11.27l-.09.21c0,.09-.07.18-.11.27s0,.09-.05.13l-.25.62c0,.11-.09.22-.13.32l-.12.29,0,.11c-.18.44-.32.77-.4,1a1.51,1.51,0,0,0-.1.25l-.23.53,5.54,2.16.2-.53s.06-.16.17-.43h0q.12-.33.33-.84h0v0c0-.06,0-.13.08-.19s.16-.41.25-.64c0-.06,0-.13.08-.2l.12-.31.09-.22.12-.32c.17-.42.36-.88.55-1.36,0-.06.05-.12.08-.19.34-.83.71-1.74,1.12-2.71,0-.11.09-.22.14-.33l.72-1.7.15-.35.78-1.79c.05-.13.11-.25.16-.37s.19-.42.28-.64l.21-.47c.63-1.4,1.29-2.83,2-4.25l.21-.44.63-1.3c.14-.28.28-.57.43-.85l.14-.28.29-.58.75-1.45.12-.22.37-.71a3.9,3.9,0,0,0,.19-.35c.07-.11.13-.23.19-.34s.13-.23.19-.34.13-.23.19-.34.13-.22.19-.33l.19-.33.12,0,.24.09.12,0,.21.07.21.07a2.45,2.45,0,0,0,.81.12h.47l.09,0h.1l.09,0,.09,0,.18,0,.09,0,.09,0,.17-.06.1,0,.09,0,.1,0,.39-.19.13-.07.28-.16.15-.09.21-.14.17-.12.16-.12.16-.12.08-.07.2-.17.25-.23.17-.17.16-.17.09-.11.1-.11.09-.12.15-.19.06-.1.07-.09.06-.09a.41.41,0,0,1,0-.09l.05-.09a4.5,4.5,0,0,0,.3-.63.17.17,0,0,1,0-.05l0-.1,0-.09,0-.11,0-.14a1.9,1.9,0,0,0,0-.25s0-.09,0-.14A2.38,2.38,0,0,0,579.5,67Zm-15.27.51-.07,0,0,0a1.14,1.14,0,0,1-.2-.19l-.06-.06h0l-.06-.08h0l-.06-.09a.78.78,0,0,1-.1-.15l0-.08a1.09,1.09,0,0,0-.08-.15l-.07-.15c0-.08-.07-.16-.1-.25a2.31,2.31,0,0,1-.1-.28l0-.1a2.76,2.76,0,0,1-.08-.27s0-.1,0-.16l-.06-.3a1.77,1.77,0,0,0,0-.2c0-.07,0-.13,0-.19s0-.11,0-.17h0s0-.06,0-.09a.28.28,0,0,0,0-.09v-.1s0-.08,0-.12v-.41a.25.25,0,0,1,0-.08.86.86,0,0,1,0-.16v-.08s0-.1,0-.14l0-.18v0a1.16,1.16,0,0,1,0-.18l0-.12a1.35,1.35,0,0,0,0-.19,2,2,0,0,1,.1-.26l.06-.12.06-.12,0,0,.09-.14.07-.09,0,0,.06-.06.06-.06.07-.06.07,0,0,0,.08,0,.09,0h0l.07,0,.31-.09.17,0,.24,0H565a.33.33,0,0,1,.14,0h.08l.11,0h.08l.06,0,0,0,0,0,0,.05s0,0,0,0l0,.07,0,.07a1.3,1.3,0,0,0,0,.13,1,1,0,0,1,0,.17v.26c0,.24,0,.49,0,.76a1.64,1.64,0,0,0,0,.22v0c0,.06,0,.12,0,.18,0,.21-.05.43-.08.66l0,.27c0,.29-.09.58-.14.88l-.06.41c0,.14,0,.27-.08.42s-.05.28-.08.43a583068849527,583068849527,0,0,1-.1.5l-.09.39c0,.15-.06.31-.1.46h0Zm6.22,5.13-.29.52-.3.57-.26.49q-.55,1-1.08,2.1c-.14.28-.29.56-.43.85l-.24.49-.33.69c-.59,1.21-1.16,2.43-1.71,3.64-.2.42-.38.84-.57,1.26-.75,1.66-1.45,3.28-2.09,4.79l-.13.3-.56,1.35-.08.18c-.32.78-.63,1.51-.9,2.19l-.13.31c-.16.4-.31.78-.46,1.14,0,.11-.08.22-.13.33l-.12.31-.1.24-.09.23-.27.71a.36.36,0,0,0,0,.09h0l-.27.7-2.82-1.1.28-.68.06-.14.09-.24.06-.13a1.12,1.12,0,0,1,.05-.13l.18-.44,0,0c0-.06.05-.12.08-.19s.07-.18.11-.28l.09-.23h0l.12-.31a2.44,2.44,0,0,0,.1-.24l.08-.18.09-.25c0-.09.08-.19.11-.28v0c0-.09.07-.17.1-.25l0-.06c0-.1.07-.19.11-.29.11-.28.22-.57.34-.86,0-.12.09-.23.13-.35l.28-.72.14-.36.14-.38.15-.38c.52-1.37,1.08-2.87,1.64-4.43.09-.23.17-.46.25-.69l.14-.39c0-.13.09-.25.13-.38s.1-.27.14-.41.1-.26.14-.39.09-.27.14-.4l.27-.77.3-.91.24-.72a1.46,1.46,0,0,1,.07-.19c.1-.3.2-.61.29-.91l.17-.51c.17-.54.34-1.07.5-1.61l.12-.4.12-.4.11-.35c.06-.19.11-.37.16-.55l.15-.53c0-.15.09-.31.13-.46.12-.42.23-.83.34-1.24,0-.13.07-.25.1-.37.1-.38.19-.76.28-1.12l.92.36.14.06.91.35.09,0,.12,0,.12,0,.1,0,.08,0,.11,0h.06l.43.17.11,0h0l.17.07,1.05.41.22.08.53.21-.38.66Zm7.71-5.19a.37.37,0,0,1,0,.11.22.22,0,0,1,0,.08v0s0,.07,0,.11l0,.12s0,.09,0,.14v0a.14.14,0,0,0,0,.06c0,.1-.08.19-.13.29l0,.09c-.07.12-.14.24-.22.36l-.09.12-.09.13a1.47,1.47,0,0,0-.1.13l-.12.12a.27.27,0,0,1-.07.08l-.15.16-.22.21-.09.07a.34.34,0,0,1-.09.08l-.19.16-.13.09-.28.2-.29.19a3,3,0,0,1-2,.6l-.62-.21.12-.21.49-.79.36-.56.35-.53.23-.34.14-.19c.18-.26.36-.51.54-.74l.21-.29a16.8,16.8,0,0,1,1.14-1.33h0v0l0,0,0,0h0l0,0,0,0h.07l.05,0H577a.28.28,0,0,1,.18,0h.05l0,0,.05,0,.11.07.05,0,0,.06a2.18,2.18,0,0,1,.38.51,1.74,1.74,0,0,1,.11.18l.06.13a.14.14,0,0,1,0,.06s0,0,0,0a1.85,1.85,0,0,1,0,.23v.2Z" transform="translate(14.28 5.52)"/><path d="M590.56,63.43a21,21,0,0,0-1.93-5.61c-.31-.61-.66-1.21-1-1.79-.24-.39-.51-.77-.78-1.14a21.25,21.25,0,0,0-9.13-7.09,21,21,0,0,0-6.55-1.5A21.35,21.35,0,0,0,551.81,56l0,.07a21.38,21.38,0,0,0-3.17,14.29,33.39,33.39,0,0,1,.2,6.67l-.66,10.08L548,89h0l0,.35h0L547.82,92h0l-.05.69,2.48,1,.94.38,16.34,6.61,1.16-1.31.76-.86h0l.77-.87,8-9.05a36,36,0,0,1,3.1-3.07c.48-.42,1-.84,1.52-1.25a21.15,21.15,0,0,0,3.94-4.08h0a21.36,21.36,0,0,0,3.77-16.77Zm-3.18,11.28a19.1,19.1,0,0,1-5.89,7.85c-.55.44-1.09.89-1.6,1.33a36.45,36.45,0,0,0-3.3,3.27l-8.05,9.1-1,1.18-.58.66h0l-4.32-1.75-.85-.34h0l-.23-.09h0l-1.33-.54-2.79-1.13-1.34-.54-2.22-.9h0l-3.77-1.52,0-.6.06-.93v0L551,77.2a35.45,35.45,0,0,0-.21-7.1,19.19,19.19,0,0,1,2.56-12.36c.12-.21.25-.42.38-.62a1.88,1.88,0,0,1,.16-.23l.07-.1a.47.47,0,0,1,.06-.09.57.57,0,0,1,.08-.13h0l.18-.24a.44.44,0,0,1,.08-.11l.14-.19.16-.21.2-.26.11-.13.21-.25.15-.17.06-.07h0l0,0,.17-.19.09-.1.09-.1.19-.19.24-.25.47-.46.06,0,.18-.16.23-.21.23-.2.24-.2.24-.19.26-.2.3-.23h0l.27-.19.1-.07.19-.14.11-.07.26-.17.33-.21.18-.11.13-.08.13-.08.41-.23.33-.17h0l.37-.2.12,0,.26-.13h0l.64-.28.55-.23.16-.06.19-.07.13,0,.55-.19.16,0,.8-.23.31-.08.25-.06.08,0,.28-.07.12,0,.16,0a.8.8,0,0,1,.15,0l.31-.06.18,0h.06l.25,0,.25,0h.18l.27,0,.31,0,.58-.05h.21c.34,0,.67,0,1,0h.45l.34,0H571l.33,0,.27,0,.22,0H572l.9.13.3.06.14,0,.48.1.23.05.26.07.25.06.39.11.3.08.15,0,.23.07.23.08.24.08.23.09.18.06.38.15.36.15.13.06.34.15.21.1.17.09.31.15.17.09c.16.08.32.16.47.25l.34.19.35.21.17.11.41.26.24.17c.25.17.49.34.72.52l.23.18.23.18.23.19.22.19.16.13.15.14.19.18a2.73,2.73,0,0,1,.25.23l.33.32.2.21.18.19.22.24.1.1.22.26.13.15.17.2.14.18.18.23L585,56l.19.26c.06.08.12.15.17.23l.24.35c.07.12.15.23.23.35l.07.11.22.37c.16.26.3.52.44.78l.14.25a.14.14,0,0,1,0,.06l.18.35.18.37.15.34,0,0,.15.37c.06.13.11.26.16.39l.09.26.11.29.11.32.09.3.12.37c0,.16.09.32.13.48s0,.12,0,.17.07.28.1.42.09.39.13.59A19.14,19.14,0,0,1,587.38,74.71Z" transform="translate(14.28 5.52)"/><path class="cls-38" d="M564.85,67.82l-.62-.27a2.74,2.74,0,0,1-1-1.65c-.56-1.84-.32-4.08.94-4.49a2.08,2.08,0,0,1,1.26-.13l0,0a.69.69,0,0,1,.26.46A29.59,29.59,0,0,1,564.85,67.82Z" transform="translate(14.28 5.52)"/><path class="cls-38" d="M575.72,70.64a3,3,0,0,1-2,.6l-.62-.21a29,29,0,0,1,3.58-5,.67.67,0,0,1,.54-.17,2,2,0,0,1,.84.94C578.5,67.7,577.76,69.4,575.72,70.64Z" transform="translate(14.28 5.52)"/><path class="cls-38" d="M560.17,95.37l-2.78-1.13c1.6-3.91,6.36-15.82,8.54-24.75,1.28.51,2.43,1,2.59,1s1.22.49,2.59,1C566.5,79.53,561.7,91.48,560.17,95.37Z" transform="translate(14.28 5.52)"/><path class="cls-38" d="M581.49,82.56c-.55.44-1.09.89-1.6,1.33a36.45,36.45,0,0,0-3.3,3.27L566.92,98.1l-5.41-2.19C563,92,567.86,80,572.48,72l.9.31a4.25,4.25,0,0,0,3.27-.68c2-1.2,3.59-3.41,2.64-5.15a3.29,3.29,0,0,0-1.89-1.72,2,2,0,0,0-1.88.42h0a30.89,30.89,0,0,0-3.82,5.33c-1.24-.47-2.4-.93-2.74-1.07h0s-1.32-.5-2.72-1.06a31.11,31.11,0,0,0,.9-6.47h0A2,2,0,0,0,566,60.34a3.28,3.28,0,0,0-2.59,0,2.87,2.87,0,0,0-1.83,2.45,7.4,7.4,0,0,0,.24,3.25,4.05,4.05,0,0,0,1.88,2.56l.85.37c-2.16,8.9-6.91,20.81-8.54,24.77l-6-2.43L551,77.2a35.45,35.45,0,0,0-.21-7.1,19.09,19.09,0,1,1,30.73,12.46Z" transform="translate(14.28 5.52)"/><path class="cls-40" d="M583.49,37.13l-1.9,4.7c-.06.13-.11.26-.16.4a1.41,1.41,0,0,1-1.79.76,1.39,1.39,0,0,1-.76-1.79l2.06-5.1a1.39,1.39,0,0,1,1.79-.76,1.34,1.34,0,0,1,.85,1.16A1.36,1.36,0,0,1,583.49,37.13Z" transform="translate(14.28 5.52)"/><path class="cls-40" d="M560.05,42a1.37,1.37,0,0,1-2.63.4c-.71-1.69-1.43-3.38-2.14-5.06a1.38,1.38,0,1,1,2.53-1.08c.05.14.11.27.17.4l2,4.67A1.2,1.2,0,0,1,560.05,42Z" transform="translate(14.28 5.52)"/><path class="cls-40" d="M544.91,57.7a1.18,1.18,0,0,1-.16.29,1.43,1.43,0,0,1-1.63.47L538,56.39a1.19,1.19,0,0,1-.51-.36,1.25,1.25,0,0,1-.3-.61,1.44,1.44,0,0,1,0-.82,1.39,1.39,0,0,1,1.79-.76l1.16.47,3.48,1.41h0l.46.19a1.34,1.34,0,0,1,.24.12A1.45,1.45,0,0,1,544.91,57.7Z" transform="translate(14.28 5.52)"/><path class="cls-40" d="M601.05,55.89l-.34.14-3.59,1.52L596,58a1.4,1.4,0,0,1-1.81-.73A1.42,1.42,0,0,1,594.3,56a1.32,1.32,0,0,1,.61-.53L600,53.36a1.38,1.38,0,0,1,1.66.48,1,1,0,0,1,.14.25A1.4,1.4,0,0,1,601.05,55.89Z" transform="translate(14.28 5.52)"/><path class="cls-40" d="M601.23,79,596.14,77a1.38,1.38,0,0,0-1,2.55l5.09,2.06a1.38,1.38,0,0,0,1-2.55Z" transform="translate(14.28 5.52)"/><path class="cls-41" d="M570.13,97.57l-.68,1h0l-.62.86-.1.14c-.49.68-1,1.37-1.41,2.08l-.74,1.18c-.12.22-.25.43-.38.65l-.07.12-.24.41a18.73,18.73,0,0,1-1.6,2.19,12.62,12.62,0,0,1-2.15,2,9.17,9.17,0,0,1-4,1.69,10.09,10.09,0,0,1-5.26-.66,8.71,8.71,0,0,1-5.83-6.41s0,0,0,0,0,0,0-.07a13.83,13.83,0,0,1-.3-2.81,21.23,21.23,0,0,1,.17-2.69c.07-.56.15-1.14.26-1.73.06-.34.12-.68.17-1,.09-.54.17-1.09.23-1.64l.1-.84L548,89.3l0-.35h0v0l.27.31a9.62,9.62,0,0,0,1.51,1.24l.29.2a31.74,31.74,0,0,0,3.73,2.12h0c.68.34,1.41.68,2.17,1l1.33.57,1.18.47c.55.22,1.09.42,1.63.61l1.37.47.23.07h0a38.77,38.77,0,0,0,5.74,1.43h0A9.61,9.61,0,0,0,570.13,97.57Z" transform="translate(14.28 5.52)"/><path d="M548.06,92.12l6.86,2.43,11,3.88,2.52.89a1.48,1.48,0,0,0,1.81-1,1.52,1.52,0,0,0-1-1.82l-6.87-2.43-10.94-3.88-2.52-.89a1.49,1.49,0,0,0-1.82,1,1.52,1.52,0,0,0,1,1.82Z" transform="translate(14.28 5.52)"/><path d="M567.63,102.78a.69.69,0,0,0,0,.13,1.51,1.51,0,0,1-1.72,1l-.1,0-1.26-.45-1-.37-.9-.33-9.09-3.24-3.88-1.39-2.42-.86a1.82,1.82,0,0,1-.28-.13,1.49,1.49,0,0,1-.75-1.68,1.55,1.55,0,0,1,1.18-1.07,1.26,1.26,0,0,1,.64,0l1.28.46,1,.37,10,3.57,6.29,2.24a1.67,1.67,0,0,1,.74.51A1.47,1.47,0,0,1,567.63,102.78Z" transform="translate(14.28 5.52)"/><path d="M564.48,107.33a1.48,1.48,0,0,1-1.81,1l-.53-.19-1.43-.52-8.53-3.07-2-.72-3-1.07-.16,0-.2-.07h0a1.47,1.47,0,0,1-.11-2.8,1.33,1.33,0,0,1,.9,0l1.29.46.67.24,6.28,2.26.93.34,1.32.48,5.32,1.91a1.67,1.67,0,0,1,.84.64A1.53,1.53,0,0,1,564.48,107.33Z" transform="translate(14.28 5.52)"/><path class="cls-42" d="M764.46,563.48c7.28-5.27,13.57-11.77,19.72-18.3s12.25-13.54,18.06-20.58,11.65-14.49,17.28-21.88,11.25-14.94,16.82-22.44,11.27-15,16.56-22.7a27.53,27.53,0,0,0,1.84-3,.59.59,0,0,0-.92-.7,44.74,44.74,0,0,0-4.64,5.27c-1.47,1.85-2.94,3.7-4.37,5.57-2.86,3.73-5.66,7.49-8.44,11.26-5.54,7.5-11,15-16.65,22.46s-11.13,14.67-16.89,21.85-11.63,14.14-17.78,20.91q-4.54,5-9.27,9.79c-3.15,3.2-6.4,6.31-9.45,9.6L764.1,563c-.22.23.07.67.36.46Z" transform="translate(14.28 5.52)"/><path class="cls-43" d="M893.08,454.05a39,39,0,0,0-1.75,5.15c-.54,1.79-1,3.62-1.41,5.44q-1.39,5.55-2.71,11.13c-1.8,7.75-3.4,15.53-4.62,23.39a207,207,0,0,0-2.41,24.07,133.23,133.23,0,0,0,1.2,23.95,100.66,100.66,0,0,0,2.32,11.51,57.22,57.22,0,0,0,3.94,11.24,17,17,0,0,0,1.5,2.49.65.65,0,0,0,1.19-.5,48.69,48.69,0,0,0-1.7-5.55c-.61-1.84-1.23-3.68-1.78-5.54a99.43,99.43,0,0,1-2.64-11.42A127.43,127.43,0,0,1,882.59,526a190.9,190.9,0,0,1,1.93-23.64c1.1-7.84,2.56-15.63,4.2-23.37,1.55-7.37,3.46-14.67,4.92-22.06a19.3,19.3,0,0,0,.34-2.63.49.49,0,0,0-.9-.25Z" transform="translate(14.28 5.52)"/><path class="cls-44" d="M792.3,555.37a25.32,25.32,0,0,0,3.44-2c1.13-.8,2.24-1.63,3.31-2.49a80.78,80.78,0,0,0,6.11-5.59A135.41,135.41,0,0,0,816.62,532c3.66-4.77,7.09-9.71,10.42-14.71s6.53-10.05,9.76-15.09c1.56-2.43,3.15-4.85,4.71-7.29s2.92-4.65,4.38-7c.34-.55.64-1.14,1-1.71s-.36-.94-.71-.55a71.21,71.21,0,0,0-5,6.49c-1.63,2.33-3.16,4.73-4.7,7.13-3.21,5-6.39,10-9.65,15s-6.69,10-10.29,14.84a140.56,140.56,0,0,1-11.14,13.34c-1.92,2-3.92,4-6,5.79-1,.89-2.06,1.76-3.11,2.61s-2.11,1.61-3.13,2.45c-.49.41-1,.81-1.49,1.21s.15,1.15.68.88Z" transform="translate(14.28 5.52)"/><path class="cls-45" d="M867.61,468.52c-1,2.51-1.9,5.07-2.83,7.62s-1.95,5.06-3,7.57c-2.08,5-4.43,9.9-6.8,14.77s-5,9.92-7.45,14.89-4.89,10-7.07,15c-1.11,2.58-2.17,5.19-3.16,7.83a78.54,78.54,0,0,0-2.49,7.94,13.67,13.67,0,0,0-.37,2,.43.43,0,0,0,.8.22,36.47,36.47,0,0,0,1.59-3.89c.51-1.29,1-2.57,1.51-3.86,1-2.55,2-5.09,3.12-7.61,2.23-5.09,4.66-10.1,7.13-15.09s5-9.92,7.44-14.9,4.77-10,6.86-15.11q1.54-3.76,2.84-7.62a60.08,60.08,0,0,0,2.13-7.81c.12-.64.22-1.28.31-1.93,0-.35-.45-.35-.56-.08Z" transform="translate(14.28 5.52)"/><path class="cls-46" d="M870.47,485.31c-.83,3.78-1.67,7.56-2.6,11.31s-2,7.77-3.06,11.66c-2,7.73-4,15.58-4.48,23.58a46.29,46.29,0,0,0-.06,6.45c.08,1.11.21,2.23.36,3.34a8.15,8.15,0,0,0,.83,3.19.74.74,0,0,0,1.34-.18,4.34,4.34,0,0,0,.13-.79c0-.24,0-.48-.07-.72-.05-.48-.09-1-.13-1.45-.09-.93-.14-1.86-.17-2.79,0-1.93-.07-3.85,0-5.77a85.1,85.1,0,0,1,1.38-11.4c1.43-7.89,3.62-15.61,5.29-23.44a71.22,71.22,0,0,0,1.84-12.91.32.32,0,0,0-.63-.08Z" transform="translate(14.28 5.52)"/><path class="cls-47" d="M767.39,552.88c-.29-.24-.58-.47-.85-.72a4.32,4.32,0,0,0-1-.66,15,15,0,0,0-2.14-.93,23.18,23.18,0,0,0-12.16-.7,25.3,25.3,0,0,0-7.22,2.8,29.44,29.44,0,0,0-6.18,4.76,32.47,32.47,0,0,0-4.82,6.19,31.78,31.78,0,0,0-3.14,7.08,26.71,26.71,0,0,0-1.15,7.42,21.61,21.61,0,0,0,1.14,7.22,20.07,20.07,0,0,0,6.83,9.39,19.13,19.13,0,0,0,3.73,2.13,15.75,15.75,0,0,0,2.22.77.49.49,0,0,0,.37-.89c-1.26-.76-2.53-1.54-3.71-2.42l-.2-.15-.08-.06-.51-.4-.39-.3c.17.14,0,0-.07,0l-.25-.2c-.5-.41-1-.84-1.47-1.29a18.93,18.93,0,0,1-1.31-1.38c-.19-.22-.38-.45-.56-.69l-.16-.21-.3-.41a18.9,18.9,0,0,1-1.74-3.1c0-.06-.17-.41-.07-.16-.05-.13-.11-.25-.16-.39s-.21-.56-.31-.85c-.18-.55-.34-1.11-.47-1.68a16.64,16.64,0,0,1-.33-1.71l0-.21c0,.29,0,0,0,0s0-.28,0-.42c0-.3-.06-.6-.08-.91a24.48,24.48,0,0,1,.06-3.53c0-.28.07-.57.1-.85s0,.23,0,0l0-.21c0-.17,0-.33.08-.5q.15-.89.36-1.77a27.72,27.72,0,0,1,1.06-3.43c.1-.28.21-.55.32-.82,0-.05.12-.29,0,0l.09-.21.21-.47c.26-.57.53-1.13.82-1.68a30,30,0,0,1,2-3.2l.52-.74.27-.36.14-.18.09-.12c-.09.11-.09.12,0,0,.4-.49.79-1,1.21-1.45a29,29,0,0,1,2.6-2.6q.71-.63,1.44-1.2c-.21.17.15-.12.21-.16l.36-.27c.26-.19.53-.37.8-.55a25.85,25.85,0,0,1,3.22-1.86l.81-.37.21-.09c.23-.1-.21.08,0,0l.48-.2c.58-.22,1.16-.43,1.76-.6a23,23,0,0,1,3.57-.78l.26,0,.45-.05,1-.07q1,0,1.92,0c.65,0,1.3.08,2,.17l.29,0,.47.08c.35.06.69.13,1,.21a40.53,40.53,0,0,1,4,1.17l.49.18a4.21,4.21,0,0,0,.62.09,6.83,6.83,0,0,1,.95.22c.34.09.67-.39.37-.64Z" transform="translate(14.28 5.52)"/><path class="cls-48" d="M756.26,568.84a10,10,0,0,0-5.17.24,7.12,7.12,0,0,0-3.61,2.78,13.32,13.32,0,0,0-1.73,9.34,12.62,12.62,0,0,0,1.89,5.17c.25.39,1,.16.78-.32a19.52,19.52,0,0,1-1.15-8.88.88.88,0,0,0,0-.16s0,.1,0,0,0-.19.05-.29.06-.37.1-.55c.08-.36.17-.7.27-1a8.16,8.16,0,0,1,.77-1.82,7.29,7.29,0,0,1,2.57-2.69,7.43,7.43,0,0,1,4.92-.73.56.56,0,0,0,.67-.38.54.54,0,0,0-.38-.67Z" transform="translate(14.28 5.52)"/><path class="cls-49" d="M889.3,562.17a19.24,19.24,0,0,1,1.75-2,10.61,10.61,0,0,1,.86-.78l.22-.18-.06,0,.12-.09.29-.21c.24-.18.06-.05,0,0l.15-.11a9.59,9.59,0,0,1,.85-.56,3.38,3.38,0,0,1,.83-.41c-.18,0-.16.06,0,0l.21-.08.43-.14c.14,0,.27-.07.41-.09l.2,0c.14,0,.32,0,0,0,.25,0,.54,0,.8,0h.39l.2,0H897c.22,0-.27,0-.14,0a10.27,10.27,0,0,1,1.56.43c.19.07-.31-.14-.07,0l.18.09.4.2c.25.14.5.29.74.45l.36.25.15.11c.14.1-.27-.21,0,0s.48.4.7.61a13.32,13.32,0,0,1,1.3,1.41s.22.29.07.08l.06.08.31.43c.2.29.39.58.57.88a19,19,0,0,1,1,1.88l.22.48c0,.09.08.17.11.25.15.33-.08-.2,0,0s.1.26.16.38-.12-.3-.06-.13.07.17.11.25l.19.52a23.59,23.59,0,0,1,1.2,4.45l.09.56c0,.32,0-.28,0,0l0,.33c.05.39.08.78.11,1.17q.06,1.15,0,2.31c0,.38,0,.77-.06,1.16,0,.17,0,.34-.05.52l0,.27c0,.19,0-.31,0-.13a.88.88,0,0,1,0,.16,17.35,17.35,0,0,1-.49,2.25c-.21.71-.47,1.41-.73,2.11-.08.2.1-.23,0,0,0,.08-.07.17-.11.25-.11.25-.22.49-.32.75s0-.09,0-.09l-.06.14c0,.08-.07.15-.1.22s-.18.38-.28.57a11,11,0,0,0-.52,1.1c-.24.61.56,1.12,1.06.82a7,7,0,0,0,1.78-1.69,9.43,9.43,0,0,0,1.33-2.19,18.6,18.6,0,0,0,1.35-5.13,22.63,22.63,0,0,0-1.11-9.83,20.55,20.55,0,0,0-4.76-8.06,9.32,9.32,0,0,0-7.13-3.08,8.13,8.13,0,0,0-3.89,1.39,12.07,12.07,0,0,0-3.42,3.76c-.26.42-.5.85-.72,1.28a.66.66,0,0,0,1.14.67Z" transform="translate(14.28 5.52)"/><path class="cls-50" d="M823.4,563.68a12.17,12.17,0,0,0-2.76,7.57,18.38,18.38,0,0,0,1.54,8.63,10.54,10.54,0,0,0,6.72,5.74,12.69,12.69,0,0,0,8.84-1.13,20,20,0,0,0,4.28-2.9,14.58,14.58,0,0,0,1.69-1.82,10,10,0,0,0,1.4-2.07.45.45,0,0,0-.71-.54c-1,.83-2,1.72-3.11,2.51-.5.38-1.08.83-1.67,1.22a19,19,0,0,1-1.84,1.1c-.3.16-.61.31-.92.45l-.23.1q-.3.13-.6.24a14.1,14.1,0,0,1-1.9.63c-.31.07-.61.14-.92.19l-.31,0h0l-.51,0a8.68,8.68,0,0,1-1,0l-.41,0-.25,0c-.05,0-.41,0-.15,0a9.65,9.65,0,0,1-1.9-.49l-.19-.08-.07,0-.44-.21c-.33-.17-.65-.36-1-.56a9.49,9.49,0,0,1-1.66-1.39l-.3-.33-.08-.1c.1.13-.07-.1-.07-.1-.18-.24-.34-.49-.5-.75s-.27-.49-.4-.74l-.21-.43a1.42,1.42,0,0,0-.08-.18c-.12-.29.07.18,0-.12a17.06,17.06,0,0,1-.62-1.87,18,18,0,0,1-.22-8.15,8.88,8.88,0,0,1,1.52-3.51.69.69,0,0,0,0-.94.68.68,0,0,0-.94,0Z" transform="translate(14.28 5.52)"/><path class="cls-51" d="M840.57,553.43c.72-1.08,1.23-2.28,1.93-3.39l.44-.63c-.16.21.09-.11.13-.16l.26-.3c.16-.16.32-.32.49-.47l.27-.23c.14-.13,0,0-.05,0l.17-.12a4.42,4.42,0,0,1,.54-.34l.27-.14.15-.07c.1,0-.27.1,0,0a8.06,8.06,0,0,1,1.19-.33c.31-.06-.23,0,0,0l.28,0h.64l.32,0c.3,0-.22,0,0,0l.64.13.61.19.26.09.16.06c.06,0-.25-.11,0,0a11.35,11.35,0,0,1,1.2.63l.55.37.31.23.12.09a13.79,13.79,0,0,1,1.12,1c.37.38.72.78,1,1.19,0,0,.12.18,0,0l.1.13.25.34c.16.23.32.47.47.71.29.46.56.94.8,1.42.12.25.24.51.35.76,0,.06.11.26,0,0a1.22,1.22,0,0,1,.07.17l.18.45a21.56,21.56,0,0,1,.88,3.36c0,.15,0,.3.07.45s.06.4,0,.14c0,.38.09.75.16,1.12,0,.15,0,.3.07.45l0,.18c0-.26,0,.18.06.26a1,1,0,0,0,1.1.68c.85-.24.85-1.32.92-2a8.43,8.43,0,0,0-.1-1.74,15.13,15.13,0,0,0-.93-3.63c-1.55-4-4.59-7.89-8.81-9.19a7.09,7.09,0,0,0-5.51.47,7.52,7.52,0,0,0-2.23,1.93,10.35,10.35,0,0,0-1,1.52,4.37,4.37,0,0,0-.23.49c.09-.23-.14.33-.18.42-.12.3-.23.61-.32.92a6,6,0,0,0-.31,2.1.56.56,0,0,0,1,.28Z" transform="translate(14.28 5.52)"/><path class="cls-52" d="M791.8,576a2.77,2.77,0,0,0,.28-.64c0-.22.1-.44.14-.65.07-.38,0-.24,0-.15a1,1,0,0,0,0-.16c0-.11,0-.22.07-.34s.09-.42.15-.63a11.06,11.06,0,0,1,.43-1.22c.09-.22,0,.1.05-.11l.12-.26c.09-.2.2-.39.3-.57l.3-.48.18-.27a1.7,1.7,0,0,0,.14-.18l.12-.15.18-.21.43-.45c.14-.13.28-.27.43-.39l.2-.18.11-.09c.14-.11-.12.09,0,0a9.77,9.77,0,0,1,.95-.63c.17-.1.33-.19.5-.27l.24-.11.12-.06c.18-.08-.21.08,0,0s.69-.26,1-.36l.49-.12.25,0c.12,0,.39-.13.09,0a3.13,3.13,0,0,1,1.06,0l.48,0c.29,0-.15,0,0,0l.3,0a8.62,8.62,0,0,1,1,.29c.16.05-.21-.1,0,0l.22.11a4.62,4.62,0,0,1,.48.28l.21.13c.1.08.21.17,0,0,.14.12.29.24.43.38a4.68,4.68,0,0,1,.43.46l.11.13c.12.15-.09-.14,0,0l.18.26a8.35,8.35,0,0,1,.71,1.23l.06.14c.1.22-.06-.15,0,.06l.25.54a1,1,0,0,0,.07.15c-.08-.18,0,.09,0,.12a2,2,0,0,0,.11.26c.06.14,0,0,0,.08.25.58.37,1.22.67,1.78a.53.53,0,0,0,1-.12,5.19,5.19,0,0,0,.08-1.8,6.71,6.71,0,0,0-.28-1.67,7.83,7.83,0,0,0-1.5-2.67,6.93,6.93,0,0,0-4.51-2.31c-3.48-.4-6.89,1.71-8.71,4.57a8.68,8.68,0,0,0-1.2,2.88,10.22,10.22,0,0,0-.22,1.65,2.93,2.93,0,0,0,.42,1.74.43.43,0,0,0,.72,0Z" transform="translate(14.28 5.52)"/><path class="cls-53" d="M804,577.11a11.31,11.31,0,0,1,1.14-1.35c.19-.19.36-.39.55-.57s.2-.2.31-.29l.12-.11.08-.06a7.37,7.37,0,0,1,1.22-.77l.13-.06h0l.3-.1a5.28,5.28,0,0,1,.66-.16c.16,0-.21,0,.06,0h.75s.28,0,.09,0,.13,0,.18,0l.32.08.25.08c.21.07-.17-.08,0,0l.18.08a4,4,0,0,1,.52.32c.21.13-.13-.13.09.06l.27.24.25.27.1.12s.17.21.06.07l.15.21c.08.11.15.23.22.35l.22.41.09.2c.1.21-.06-.17,0,.07s.21.6.3.91c.23.76.47,1.53.64,2.31a.84.84,0,0,0,.93.6.85.85,0,0,0,.73-.83,8,8,0,0,0-.92-4.46,6.32,6.32,0,0,0-2.4-2.57,5.4,5.4,0,0,0-6.21.84,8.22,8.22,0,0,0-1.31,1.57,7.76,7.76,0,0,0-.84,2.19.43.43,0,0,0,.78.33Z" transform="translate(14.28 5.52)"/><path class="cls-54" d="M811.17,568c0-.22-.06-.47-.08-.7a4.43,4.43,0,0,0-.06-.51c0-.25,0,.11,0,0l0-.26a11.46,11.46,0,0,1,0-1.31l0-.56c0-.2,0,.2,0,.07a.58.58,0,0,0,0-.14,2.61,2.61,0,0,1,.06-.27c0-.17.1-.33.15-.49s-.11.21,0,0c0-.08.09-.18.14-.26s.07-.12.11-.17l.09-.13c.07-.11-.07,0-.08.1,0-.12.25-.28.33-.37l.19-.16c.18-.17-.15.1,0,0s.28-.19.43-.27.4-.15.46-.24l-.11,0,.1,0,.31-.11a7.91,7.91,0,0,1,1.07-.25l.12,0c.2,0,0-.07-.06,0a.69.69,0,0,1,.25,0c.22,0,.44,0,.66,0,.43,0,.87,0,1.3,0l.62.05.35,0c.11,0,.48,0,.12,0a7.6,7.6,0,0,1,1.4.24,27.49,27.49,0,0,1,2.8.74c.47.15.93.32,1.39.5a3.77,3.77,0,0,1,.66.26s-.28-.12-.08,0l.17.08.37.16a29.37,29.37,0,0,1,2.66,1.41c.4.24.81.46,1.2.71a3.82,3.82,0,0,0,1.29.49.68.68,0,0,0,.83-.83,2.53,2.53,0,0,0-.69-1.32,8.56,8.56,0,0,0-1.12-1A15.36,15.36,0,0,0,826,562a26.37,26.37,0,0,0-6-2c-3.31-.64-8.1-1-10.29,2.18-1.31,1.92-.86,4.45.24,6.34a.64.64,0,0,0,.8.26.65.65,0,0,0,.37-.75Z" transform="translate(14.28 5.52)"/><path class="cls-55" d="M810.76,548.52a3.93,3.93,0,0,1,.06-.48c0-.06,0-.14,0-.15v0c0,.08,0,.06.07-.08s0-.16.08-.24a1.59,1.59,0,0,1,.07-.2l0-.1c-.08.2,0,0,0-.12s.1-.32.15-.48-.05.08,0-.07l.11-.21a3.35,3.35,0,0,1,.27-.45c0-.06.19-.23,0,0,0-.06.1-.13.16-.19l.34-.38.36-.35.2-.17.11-.09,0,0a10.61,10.61,0,0,1,.94-.6l.51-.25.24-.11c.2-.1-.19.07-.05,0l.18-.08c.39-.15.78-.28,1.18-.4s.83-.23,1.25-.31l.6-.1.18,0c.16,0-.29,0,0,0l.36,0a14.65,14.65,0,0,1,2.73,0,4.9,4.9,0,0,1,.67.07h.06l.37.07a13,13,0,0,1,1.37.32c.42.13.84.28,1.25.44l.13,0,.27.11.65.33.63.37.3.21.14.1.09.07.06,0,.14.12.3.26.52.51a7.14,7.14,0,0,1,.54.56,3.76,3.76,0,0,1,.25.31c-.13-.16.1.13.13.18.15.21.27.43.42.65s.41.48.6.72c.31.4,1,.06,1-.4a5.22,5.22,0,0,0-.07-.88,3.77,3.77,0,0,0-.31-.85,10,10,0,0,0-.69-1.29,8.75,8.75,0,0,0-2.33-2.29,12.2,12.2,0,0,0-5.79-2c-3.57-.4-8,.36-10.5,3.11a5,5,0,0,0-1.26,2.37,3.26,3.26,0,0,0,0,1.39,1.84,1.84,0,0,0,.27.58c.09.19.17.38.27.56a.21.21,0,0,0,.39-.1Z" transform="translate(14.28 5.52)"/><path class="cls-56" d="M866.44,557.13a5.61,5.61,0,0,1,1.44-.51,2.79,2.79,0,0,1,.55,0H869c-.09,0-.07,0,0,0s.44.08.65.14l.28.09.16.06c.15.05-.2-.11,0,0l.52.29.3.2.14.1c-.12-.09,0,0,0,0a11.11,11.11,0,0,1,1,1c.16.18.32.37.47.56s0,0,0,0l.12.16.27.38a13.78,13.78,0,0,1,.83,1.39l.36.71.15.34.09.2c.14.31,0-.11,0,.07l.27.61c0,.07.06.13.08.19s0,0,0,.08c.13.33.27.65.43,1a8.59,8.59,0,0,0,.39.81,6.13,6.13,0,0,0,.56.7.52.52,0,0,0,.87-.23,5.53,5.53,0,0,0,.16-.79,5.36,5.36,0,0,0-.1-1.06,8.48,8.48,0,0,0-.46-1.73,16,16,0,0,0-1.75-3.35c-1.25-1.83-3.19-3.77-5.59-3.76a5.81,5.81,0,0,0-3.6,1.45c-.53.44.15,1.2.71.92Z" transform="translate(14.28 5.52)"/><path class="cls-57" d="M746.68,537.63c.08-.5.2-1,.27-1.48s.16-.91.27-1.37a16.28,16.28,0,0,1,.71-2.35,1.12,1.12,0,0,1,.05-.13c0-.12-.07.17,0,0a2.56,2.56,0,0,0,.11-.24c.08-.17.17-.33.25-.5s.32-.61.5-.9l.26-.37a1.33,1.33,0,0,1,.14-.19c-.2.27,0,0,0-.06a6.35,6.35,0,0,1,.62-.65c.11-.1.22-.2.34-.29s-.12.08,0,0l.19-.14a8.69,8.69,0,0,1,.77-.46l.37-.17c.22-.11-.25.09,0,0l.23-.09a6.22,6.22,0,0,1,.87-.25l.44-.1.22,0h.08c.22,0-.29,0-.07,0s.62-.06.93-.07a13.6,13.6,0,0,1,2,.1c.2,0-.3,0,0,0l.25,0,.55.1c.36.06.72.14,1.08.23.74.18,1.47.41,2.19.66l1.13.43.27.12c-.24-.11-.07,0,.06,0l.55.25c.77.35,1.52.74,2.26,1.15a38.09,38.09,0,0,1,4.39,2.82l.48.36c.1.07.29.22.07,0l.32.25,1,.81c.67.56,1.34,1.12,2,1.72a36.67,36.67,0,0,1,3.37,3.57l.37.45.17.22,0,0,.13.17c.27.35.51.7.78,1.05l.17.21c-.14-.18,0,0,.05.06l.33.46c.21.29.41.58.6.88l.24.4.11.15.07.1s.11.13.13.17a.61.61,0,0,0,1.11-.47,8.78,8.78,0,0,0-.72-2.17,13.28,13.28,0,0,0-1.1-2,29.46,29.46,0,0,0-3.26-4,38.9,38.9,0,0,0-8.62-6.75,27.05,27.05,0,0,0-9.38-3.61c-2.8-.41-5.85-.23-8.17,1.54a8.29,8.29,0,0,0-2.75,3.63,13.43,13.43,0,0,0-.78,5.14,14.45,14.45,0,0,0,.2,1.61.43.43,0,0,0,.82,0Z" transform="translate(14.28 5.52)"/><path class="cls-58" d="M900.13,547c.53-.87,1-1.8,1.51-2.67.26-.39.5-.79.77-1.17a10,10,0,0,1,.71-1,13.38,13.38,0,0,1,1.7-1.75l.4-.32.11-.08.24-.18a10.5,10.5,0,0,1,.9-.57,10.12,10.12,0,0,1,.93-.47l.1,0c.12-.06-.19.06-.06,0l.23-.09.49-.17c.32-.1.64-.18,1-.25l.47-.09h.1c.14,0-.23,0-.08,0l.26,0a10,10,0,0,1,2,0l.24,0c.06,0,.32,0,.13,0l.12,0,.27,0c.33.06.66.14,1,.22s.65.2,1,.31l.47.18.12,0,.2.09a15.6,15.6,0,0,1,1.89,1c.32.2.63.4.93.62l.44.32c.23.17-.15-.12,0,0l.24.19a23,23,0,0,1,1.72,1.54c.57.56,1.1,1.15,1.61,1.76,0,.06.29.45.36.46s-.2-.26-.05-.07l.07.1.2.27c.24.33.48.67.7,1a22.86,22.86,0,0,1,1.24,2.14q.3.59.57,1.17l.1.24a.77.77,0,0,1,.07.16l-.05-.12.24.61a25,25,0,0,1,1.36,5,1.65,1.65,0,0,1,0,.31s0-.27,0-.12a1.1,1.1,0,0,0,0,.18c0,.22,0,.44.07.67,0,.43.07.87.11,1.3a19.4,19.4,0,0,1,.06,2.64,7.78,7.78,0,0,0,.11,1.33c.07.61.94,1,1.29.35a5.64,5.64,0,0,0,.56-1.37c.11-.51.18-1,.25-1.54a14.16,14.16,0,0,0,.14-2.76,23.47,23.47,0,0,0-1-5.51,24.38,24.38,0,0,0-5.44-9.22,18.84,18.84,0,0,0-8.12-5.27,11.83,11.83,0,0,0-8.73.55,9.06,9.06,0,0,0-1,.54l-.43.28-.21.15-.34.26-.16.12-.12.1-.2.18a6,6,0,0,0-.45.42,11.65,11.65,0,0,0-.83.89,16.67,16.67,0,0,0-2.9,5.08,9.72,9.72,0,0,0-.46,1.57.46.46,0,0,0,.83.35Z" transform="translate(14.28 5.52)"/><path class="cls-59" d="M902.44,590a4.17,4.17,0,0,1,.47-.47l.12-.1c.1-.08,0,0,0,0l.15-.08c.09-.05-.16.08.09,0a3.07,3.07,0,0,0,.31-.17l.13-.06c.15-.08-.12,0,0,0a5.26,5.26,0,0,1,.53-.15l.13,0c.17,0-.11,0-.06,0l.31,0h.55a.78.78,0,0,0,.14,0s-.27,0-.08,0l.3.06a3.8,3.8,0,0,1,.6.18l.15.05-.07,0c.1.06.21.1.31.15l.59.32.6.39.31.22.15.11c.2.14-.16-.13,0,0a18,18,0,0,1,2.41,2.37l.28.33c.06.09.28.27.29.38,0-.11-.15-.21,0,0l.16.21.29.39c.37.52.71,1.06,1.06,1.61a27.83,27.83,0,0,1,1.92,3.57c.07.14.14.29.2.44s0,.13,0,0c0,.09.07.17.1.26q.2.46.36.93c.23.63.44,1.27.62,1.92s.32,1.27.44,1.92l.15.93c0,.06,0,.33,0,.06s0,0,0,.07,0,.31.05.47a13.84,13.84,0,0,1,.06,1.82c0,.29,0,.57-.07.86a1.23,1.23,0,0,0,0,.2c0-.13,0-.33,0-.1s0,.33-.07.5c0-.19,0-.29,0-.07A12.86,12.86,0,0,1,916,611c0,.12-.07.24-.11.36a1.34,1.34,0,0,0-.07.18s-.1.29,0,.1,0,0,0,.07l-.09.2c-.06.13-.13.25-.2.37a3.32,3.32,0,0,0-.36.9c-.13.58.4,1.32,1.06,1.07a2.27,2.27,0,0,0,1-.67c.23-.26.44-.54.65-.83a8.77,8.77,0,0,0,.92-1.74,10.69,10.69,0,0,0,.64-3.84,21.2,21.2,0,0,0-2-8.46,26.93,26.93,0,0,0-4.54-7.21,13.54,13.54,0,0,0-5.7-4.19,5.33,5.33,0,0,0-2.88-.18,4.1,4.1,0,0,0-1.22.56,2.7,2.7,0,0,0-.69.61c0,.05-.2.28-.1.15l-.29.36a5.25,5.25,0,0,0-.38.58c-.3.52.43,1.14.86.66Z" transform="translate(14.28 5.52)"/><path class="cls-60" d="M736.33,543.55c-1.3.18-2.6.13-3.91.22s-2.67.26-4,.42a30,30,0,0,0-7.74,1.92,17.36,17.36,0,0,0-5.62,3.71,20.8,20.8,0,0,0-3.22,4.24,25.41,25.41,0,0,0-3.29,10.52,20.36,20.36,0,0,0,1.72,10.53,14.92,14.92,0,0,0,3,4.23,14,14,0,0,0,4.74,3,7.18,7.18,0,0,0,1.44.34.6.6,0,0,0,.46-1.09c-.42-.21-.82-.46-1.25-.65s-.83-.4-1.23-.63-.76-.46-1.12-.71l-.52-.36-.18-.14-.24-.19a12.94,12.94,0,0,1-1.78-1.77l-.18-.22-.1-.12c-.08-.11.07.09,0,0l-.37-.51c-.23-.34-.45-.69-.65-1s-.38-.7-.55-1.06c0-.1-.09-.2-.13-.3s0-.09-.07-.14.06.14,0,0-.16-.39-.23-.59a17.93,17.93,0,0,1-.68-2.38c-.09-.41-.16-.83-.22-1.25,0-.18,0-.05,0,0a.88.88,0,0,1,0-.16l0-.29q0-.33-.06-.66a20.51,20.51,0,0,1,0-2.6c0-.43.05-.87.09-1.31,0-.21,0-.42.07-.63,0,0,0-.08,0-.12,0,.16,0,0,0,0l.06-.38a25.18,25.18,0,0,1,.55-2.58,24.52,24.52,0,0,1,.82-2.51c.08-.19.15-.39.24-.58-.07.15,0-.09,0-.13a3.73,3.73,0,0,1,.16-.35c.17-.38.35-.76.55-1.13a21.4,21.4,0,0,1,1.31-2.21c.11-.17.23-.33.35-.5l.17-.23a1.13,1.13,0,0,1,.1-.13c.15-.21-.07.08,0,0,.26-.33.52-.65.8-1a17.66,17.66,0,0,1,1.75-1.71l.45-.36,0,0,.2-.15.44-.32a15.58,15.58,0,0,1,1.6-1,24.79,24.79,0,0,1,7.13-2.3c1.28-.25,2.56-.48,3.85-.7a25.78,25.78,0,0,0,3.69-.79,16.16,16.16,0,0,1,1.82-.46c.44-.1.24-.73-.19-.67Z" transform="translate(14.28 5.52)"/><path class="cls-61" d="M723,590.86a9,9,0,0,0-3.71,2.38,10.05,10.05,0,0,0-2.18,3.94,17.76,17.76,0,0,0,.07,9.62,21.31,21.31,0,0,0,4.75,9,12.8,12.8,0,0,0,8.5,4.39c4,.28,7.78-1.74,10.6-4.45a7.1,7.1,0,0,0,1.16-1.46.6.6,0,0,0-.81-.82c-.26.15-.53.28-.79.44a8.28,8.28,0,0,0-.69.53c-.45.33-.9.64-1.37.94a21.63,21.63,0,0,1-2.61,1.48l-.28.13-.14.06c-.23.11.16-.06,0,0l-.66.25c-.39.14-.79.25-1.19.35s-.8.17-1.2.24h-.06l-.26,0-.61,0a10.17,10.17,0,0,1-1.1,0l-.27,0-.16,0,.12,0-.54-.1a10.3,10.3,0,0,1-1.06-.27,5.73,5.73,0,0,1-1-.38l.11,0-.11,0-.24-.11c-.18-.09-.35-.17-.52-.27-.32-.17-.64-.36-.94-.56l-.43-.3a1.84,1.84,0,0,1-.22-.17c-.07,0-.17-.08.08.07a1.58,1.58,0,0,1-.15-.12c-.29-.23-.57-.48-.85-.73a17.41,17.41,0,0,1-1.54-1.67l-.18-.22c.15.18.06.07,0,0s-.25-.33-.36-.5-.43-.63-.64-1a23.54,23.54,0,0,1-1.13-2.1l-.24-.55c-.11-.25,0,.08,0,0l-.12-.31c-.15-.38-.29-.75-.41-1.13a20.82,20.82,0,0,1-.64-2.31c-.08-.37-.15-.75-.21-1.12,0-.1,0-.2,0-.29,0-.27,0,.11,0,0s0-.41-.07-.61a18.79,18.79,0,0,1-.07-2.25c0-.37,0-.74.07-1.1l.06-.55c0-.25,0,.12,0,0s0-.2,0-.3a13.27,13.27,0,0,1,.52-2c.05-.15.11-.3.17-.45l0-.1c.05-.12-.09.21,0,0l.12-.26c.14-.3.3-.59.47-.89a8.48,8.48,0,0,1,.51-.81l.15-.2,0-.06c.11-.14.22-.27.34-.4a9.49,9.49,0,0,1,.72-.7,6.25,6.25,0,0,1,.71-.54,10.63,10.63,0,0,1,.93-.53.53.53,0,0,0-.42-1Z" transform="translate(14.28 5.52)"/><path class="cls-62" d="M915.48,629.29a8.58,8.58,0,0,0,2.61,3.56,4.3,4.3,0,0,0,3.31.76,7.29,7.29,0,0,0,3.09-1.49,16.69,16.69,0,0,0,2.93-2.89,39.4,39.4,0,0,0,4.38-6.94c.23-.45.45-.9.65-1.36a20.91,20.91,0,0,0,1-3.4,29.66,29.66,0,0,0,.91-6.76,31.2,31.2,0,0,0-.74-7.21c-.25-1.2-.58-2.39-.95-3.57-.18-.59-.39-1.17-.61-1.74a8,8,0,0,0-.85-1.82c-.15-.22-.57-.17-.55.15a18.29,18.29,0,0,0,.72,3.18c.26,1,.49,2.07.67,3.11a31.26,31.26,0,0,1,.48,6,35.6,35.6,0,0,1-.68,6.09c-.2,1.06-.44,2.11-.73,3.14-.15.54-.36,1.08-.49,1.62l0,.15c0-.06,0-.06,0,0s0,.11-.07.16a3.54,3.54,0,0,1-.16.34,40.23,40.23,0,0,1-3.7,6.39l-.58.78c-.12.16,0,0,0,0l-.16.21-.36.44c-.4.48-.82,1-1.26,1.41-.2.21-.41.42-.63.61s-.23.21-.35.31-.4.31-.22.18a8.66,8.66,0,0,1-1.37.84s-.25.11,0,0l-.21.08-.39.13-.36.08c-.21,0,.21,0,0,0l-.25,0h-.73l-.24-.06-.36-.12c-.2-.07.15.08-.05,0l-.24-.12-.36-.22a4.72,4.72,0,0,1-.69-.58,9.66,9.66,0,0,1-1.46-2c-.35-.63-1.22-.08-.94.55Z" transform="translate(14.28 5.52)"/><path class="cls-63" d="M921.39,557.64c.31.07.36.12.66.18a5.2,5.2,0,0,1,.67.21l.16.06c.13,0-.18-.09,0,0l.28.15.27.16.18.13c.17.11-.11-.11,0,0a10.71,10.71,0,0,1,1.07,1.06l.12.15c-.13-.17,0,0,0,0l.24.34c.16.23.32.47.46.72a7.37,7.37,0,0,1,.43.78l.18.36.1.21s.13.31,0,.08a16.31,16.31,0,0,1,.62,1.78,18.38,18.38,0,0,1,.39,1.82c0,.07.07.47,0,.22,0,.15,0,.31,0,.47s0,.61.06.92a14.1,14.1,0,0,1,0,1.95,5.26,5.26,0,0,0,0,1.12c0,.15,0-.23,0,0s0,.25,0,.36a2.18,2.18,0,0,0,.16.45.56.56,0,0,0,.76.2c1.2-.69,1.23-2.53,1.26-3.74a14.2,14.2,0,0,0-.57-4.1c-.66-2.44-1.88-5.21-4.12-6.6a5.21,5.21,0,0,0-1.73-.7,3.59,3.59,0,0,0-1-.05,2.4,2.4,0,0,0-1,.3.52.52,0,0,0,.12.95Z" transform="translate(14.28 5.52)"/><path class="cls-64" d="M928.58,563.41c.79.14,1.61.06,2.41.12l.56.05c.19,0,0,0,.12,0l.29,0,1,.19a14.39,14.39,0,0,1,1.89.53l.21.08.13,0c-.15-.06.09,0,.12.06l.23.11a7.29,7.29,0,0,1,.78.42c.25.15.49.32.72.49s-.16-.13,0,0l.17.14.34.31q.33.3.63.63l.25.3c0,.06.09.12.14.17-.14-.17-.05-.06,0,0a10.05,10.05,0,0,1,.92,1.5c.07.13.13.27.19.4l.09.2c-.1-.2,0-.07,0,0q.17.42.3.84a12.4,12.4,0,0,1,.43,1.8,1.85,1.85,0,0,1,0,.23s0,.31,0,.12,0,.09,0,.12l0,.24c0,.32.05.64.06,1a15.87,15.87,0,0,1,0,2c0,.15,0,.3,0,.45a1.94,1.94,0,0,0,0,.24c0,.27,0-.18,0,.07s-.11.67-.18,1a19.78,19.78,0,0,1-.53,2c-.1.32-.22.64-.34.95l-.1.24c-.07.18.08-.18,0,0s-.15.33-.22.5a22.23,22.23,0,0,1-2.16,3.64c-.1.13.09-.11-.06.07l-.14.18c-.12.15-.24.3-.37.44s-.49.55-.75.81-.52.51-.79.75l-.42.35-.21.17-.09.08-.05,0a21.58,21.58,0,0,1-4,2.37c-.37.16-.73.31-1.09.48a.41.41,0,0,0,.2.76,14.69,14.69,0,0,0,8.55-4.52,17.23,17.23,0,0,0,4.44-7.87,17,17,0,0,0,.11-8.44,11.73,11.73,0,0,0-4.29-6.55,9.93,9.93,0,0,0-3.63-1.67,11.6,11.6,0,0,0-4.73.06,4,4,0,0,0-1.25.42.43.43,0,0,0,.11.78Z" transform="translate(14.28 5.52)"/><path class="cls-65" d="M926.86,603.31a5.35,5.35,0,0,0,.69.17l.67,0a4.8,4.8,0,0,0,1.4-.21,8.41,8.41,0,0,0,2.51-1.05,12.81,12.81,0,0,0,3.92-3.87,26.5,26.5,0,0,0,3.81-10.87c.15-1.11.27-2.23.34-3.35a8.09,8.09,0,0,0-.13-1.63,2.41,2.41,0,0,0-.62-1.36.48.48,0,0,0-.67,0,1.37,1.37,0,0,0-.37.55l-.11.27s0,.07,0,.11c.08-.21-.07.16-.08.19a8.28,8.28,0,0,0-.26,1.2c-.08.51-.11,1-.16,1.52,0,.22,0,.43-.08.64s0,.22,0,.33c0-.28,0,0,0,.14a40.27,40.27,0,0,1-1.13,5.43,26.74,26.74,0,0,1-.89,2.61l-.09.21c.06-.14-.07.17-.08.2l-.3.64c-.19.4-.39.79-.61,1.18a23.44,23.44,0,0,1-1.43,2.14l0,0-.2.24c-.13.16-.28.32-.42.48a11.91,11.91,0,0,1-.89.85l-.29.24s-.12.09,0,0-.1.07-.1.07l-.56.38c-.37.23-.77.45-1.17.65l-.3.15-.19.08c-.23.1-.46.18-.69.26s-.44.19-.66.27-.47.24-.71.32-.38.63,0,.71Z" transform="translate(14.28 5.52)"/><path class="cls-66" d="M721.73,573.78a10.61,10.61,0,0,0-2.11,5.57,22.29,22.29,0,0,0,.18,6.77A27,27,0,0,0,725,598.43a14.42,14.42,0,0,0,2.33,2.42,12.27,12.27,0,0,0,1.53,1.06c.23.13.47.27.72.38a2.66,2.66,0,0,0,1,.18.68.68,0,0,0,.59-1c-.13-.18-.24-.38-.38-.55a3.71,3.71,0,0,0-.55-.5c-.36-.31-.7-.64-1-1a26.42,26.42,0,0,1-2-2.12l-.43-.54-.08-.11-.27-.36c-.29-.41-.58-.82-.85-1.25a26.31,26.31,0,0,1-1.54-2.74l-.31-.67c0-.11-.1-.22-.14-.33l-.09-.2c.07.16,0,0,0-.06-.2-.49-.39-1-.56-1.48a28.07,28.07,0,0,1-.89-3.1c-.11-.52-.21-1-.3-1.55s-.12-.75-.18-1.36c-.11-1-.14-2.08-.15-3.11a20.47,20.47,0,0,1,.23-3.19c.16-1,.39-2.11.55-3.18,0-.27-.29-.56-.51-.3Z" transform="translate(14.28 5.52)"/><path class="cls-67" d="M721.28,546.78a9.71,9.71,0,0,0-.1-1.21q-.12-.55-.21-1.11a19.2,19.2,0,0,1-.16-2,14.92,14.92,0,0,1,.11-2.11c0,.14,0,0,0,0a2,2,0,0,0,0-.26c0-.17.06-.34.1-.51.06-.33.15-.67.24-1a16.25,16.25,0,0,1,4-6.79,18.76,18.76,0,0,1,1.52-1.44c.57-.49,1-.84,1.54-1.23a25.19,25.19,0,0,1,3.77-2.25,23.56,23.56,0,0,1,4-1.5,22,22,0,0,1,4.17-.76,21.4,21.4,0,0,1,9.28,1.26c.59.22.94-.69.42-1a16.21,16.21,0,0,0-8.68-2.08,25,25,0,0,0-9.09,2c-5.47,2.32-10.42,6.62-12.35,12.38a15,15,0,0,0-.77,4.75,12.8,12.8,0,0,0,.26,2.54c.09.43.2.85.32,1.27a5.17,5.17,0,0,0,.66,1.25c.24.37,1,.26.91-.25Z" transform="translate(14.28 5.52)"/><polygon class="cls-38" points="885.62 423.2 879.27 432.48 916.7 450.67 920.07 439.94 885.62 423.2"/><path class="cls-35" d="M902.42,446.61a1.43,1.43,0,0,1-.64-.15l-37.42-18.19a1.49,1.49,0,0,1-.77-.93,1.47,1.47,0,0,1,.21-1.19l6.35-9.29a1.44,1.44,0,0,1,1.83-.48l34.45,16.74a1.46,1.46,0,0,1,.75,1.74l-3.38,10.73a1.45,1.45,0,0,1-.81.9A1.42,1.42,0,0,1,902.42,446.61ZM867.14,426.4l34.4,16.72,2.5-7.93-32.2-15.66Z" transform="translate(14.28 5.52)"/><path class="cls-38" d="M869.73,429.27l27.91,13.56c-5,47.94-44.18,59.58-44.18,59.58C834.3,459.36,869.73,429.27,869.73,429.27Z" transform="translate(14.28 5.52)"/><path class="cls-35" d="M853.46,503.86a1.44,1.44,0,0,1-1.32-.86,61,61,0,0,1,1-54,71.33,71.33,0,0,1,15.68-20.88,1.46,1.46,0,0,1,1.57-.2l27.92,13.57a1.45,1.45,0,0,1,.8,1.46,77.85,77.85,0,0,1-9.2,30.08A68.25,68.25,0,0,1,874.6,491.7c-10.52,9-20.32,12-20.73,12.1A1.4,1.4,0,0,1,853.46,503.86ZM870,431a71,71,0,0,0-14.32,19.44c-8.13,16.3-8.6,33.17-1.41,50.16a63.92,63.92,0,0,0,18.57-11.19c9.13-7.84,20.51-22.1,23.27-45.72Z" transform="translate(14.28 5.52)"/><path class="cls-38" d="M893.25,440.7l-19.16-9.31c-6.6,10.08-15.4,28.23-10.49,48.34C863.6,479.73,883.72,469.55,893.25,440.7Z" transform="translate(14.28 5.52)"/><path class="cls-35" d="M863.6,481.18a1.42,1.42,0,0,1-.61-.13,1.44,1.44,0,0,1-.8-1,55,55,0,0,1,.95-28.69,77.72,77.72,0,0,1,9.74-20.8,1.46,1.46,0,0,1,1.85-.51l19.16,9.32a1.45,1.45,0,0,1,.74,1.76,77.54,77.54,0,0,1-18.76,30.91,51.65,51.65,0,0,1-11.62,9A1.47,1.47,0,0,1,863.6,481.18Zm11-47.93c-5.73,9.07-13.74,25.77-10,44.23a55.92,55.92,0,0,0,9.34-7.57,74.24,74.24,0,0,0,17.55-28.46Z" transform="translate(14.28 5.52)"/><path class="cls-38" d="M873.71,457.93s8.84-5.5,15.8-19.05l-11.6-5.64C874.82,440.1,872.36,448.86,873.71,457.93Z" transform="translate(14.28 5.52)"/><path class="cls-35" d="M873.71,459.38a1.48,1.48,0,0,1-1.43-1.24c-1.19-7.94.26-16.52,4.31-25.49a1.44,1.44,0,0,1,.82-.77,1.48,1.48,0,0,1,1.13.06l11.61,5.64a1.48,1.48,0,0,1,.74.85,1.46,1.46,0,0,1-.09,1.12c-7.06,13.74-15.95,19.37-16.32,19.61A1.5,1.5,0,0,1,873.71,459.38Zm4.92-24.17a43.51,43.51,0,0,0-3.76,20.05,53.11,53.11,0,0,0,12.66-15.73Z" transform="translate(14.28 5.52)"/><rect class="cls-38" x="886.49" y="394.3" width="7.39" height="56.86" transform="translate(135.09 1044.04) rotate(-64.08)"/><path class="cls-35" d="M914.14,439.94a1.39,1.39,0,0,1-.63-.15l-51.14-24.86a1.45,1.45,0,0,1-.67-1.94l3.23-6.65a1.45,1.45,0,0,1,1.94-.67L918,430.53a1.45,1.45,0,0,1,.67,1.94l-3.24,6.65a1.41,1.41,0,0,1-.83.74A1.5,1.5,0,0,1,914.14,439.94Zm-49.2-27,48.53,23.59,2-4.05L866.9,408.91Z" transform="translate(14.28 5.52)"/><path class="cls-38" d="M994.5,268s-3-21.71-15.54-27.83-31.49,5-31.49,5c-11.88,9.13-14.86,11.54-24.22,30.79L860.8,404.33l62,30.15L985.25,306C995.61,284.7,995.92,279.94,994.5,268Z" transform="translate(14.28 5.52)"/><path class="cls-35" d="M922.8,435.93a1.42,1.42,0,0,1-.63-.15l-62-30.14a1.44,1.44,0,0,1-.67-1.94s53.09-109.2,62.44-128.45c9.6-19.74,12.79-22.19,24.65-31.31a.56.56,0,0,1,.15-.1c.8-.47,19.72-11.41,32.85-5s16.22,28,16.34,28.95v0c1.51,12.76.82,17.87-9.39,38.88L924.11,435.11a1.47,1.47,0,0,1-.83.74A1.61,1.61,0,0,1,922.8,435.93Zm-60.06-32.27,59.39,28.88,61.81-127.15c10.41-21.41,10.49-25.7,9.12-37.25-.08-.57-3.1-21.06-14.73-26.72-11.38-5.53-28.78,4.15-30.05,4.88-11.66,9-14.45,11.13-23.73,30.22C915.79,294.53,868.76,391.29,862.74,403.66Z" transform="translate(14.28 5.52)"/><path class="cls-38" d="M994.5,268c-1-9.15-5.67-38.16-9.29-39.92s-33.53,14.21-37.74,17.06a108,108,0,0,1,47,22.86Z" transform="translate(14.28 5.52)"/><path class="cls-35" d="M994.5,269.4a1.43,1.43,0,0,1-1-.36,106.54,106.54,0,0,0-46.34-22.53,1.44,1.44,0,0,1-.54-2.62c2.08-1.41,10.61-6.15,19.24-10.37,16.9-8.27,19-7.24,19.94-6.79s3,1.47,6.43,18.2c1.71,8.4,3.16,18.05,3.67,22.87a1.47,1.47,0,0,1-.78,1.44A1.4,1.4,0,0,1,994.5,269.4Zm-43.19-24.93a110.06,110.06,0,0,1,41.32,20.09c-.67-5-1.82-12.18-3.12-18.64-2.83-14.08-4.6-16.27-4.93-16.57-.48-.07-3.52-.06-17.84,7C960.76,239.27,954.89,242.43,951.31,244.47Z" transform="translate(14.28 5.52)"/><path class="cls-38" d="M906,311.53l-37.78,77.71-34.32-16.68,6.61-13.6C841.85,356.12,906,311.53,906,311.53Z" transform="translate(14.28 5.52)"/><path class="cls-35" d="M868.18,390.69a1.41,1.41,0,0,1-.63-.14l-34.33-16.69a1.4,1.4,0,0,1-.73-.83,1.45,1.45,0,0,1,.06-1.1l6.62-13.61c.35-.73,1-2.1,33.72-25.32,16-11.38,32.08-22.55,32.24-22.66a1.45,1.45,0,0,1,2.13,1.82l-37.78,77.72A1.44,1.44,0,0,1,868.18,390.69Zm-32.39-18.8,31.72,15.42,34.71-71.41c-24.74,17.26-58.3,41.08-60.48,43.77C840.61,362,837.21,369,835.79,371.89Zm6-12.3v0Z" transform="translate(14.28 5.52)"/><path class="cls-38" d="M834.26,379.28,862.9,400.1l5.28-10.86-34.32-16.68-.81,1.67C831.67,377.06,834.26,379.28,834.26,379.28Z" transform="translate(14.28 5.52)"/><path class="cls-35" d="M862.9,401.55a1.46,1.46,0,0,1-.85-.27l-28.64-20.83-.09-.07a5.78,5.78,0,0,1-1.57-6.79l.8-1.66a1.47,1.47,0,0,1,.83-.74,1.43,1.43,0,0,1,1.11.07l34.32,16.68a1.47,1.47,0,0,1,.74.83,1.43,1.43,0,0,1-.07,1.11l-5.28,10.86a1.42,1.42,0,0,1-1,.77A1.34,1.34,0,0,1,862.9,401.55Zm-27.72-23.4,27.17,19.76,3.89-8L834.53,374.5l-.18.36A2.89,2.89,0,0,0,835.18,378.15Z" transform="translate(14.28 5.52)"/><path class="cls-38" d="M967.89,341.64l-37.78,77.71L964.44,436l6.61-13.61C972.43,419.6,967.89,341.64,967.89,341.64Z" transform="translate(14.28 5.52)"/><path class="cls-35" d="M964.44,437.49a1.46,1.46,0,0,1-.64-.15l-34.32-16.68a1.44,1.44,0,0,1-.67-1.94L966.59,341a1.45,1.45,0,0,1,2.75.55c0,.19,1.15,19.72,2.1,39.34,1.94,40.06,1.27,41.43.91,42.17l-6.61,13.6A1.45,1.45,0,0,1,964.44,437.49Zm-32.39-18.81,31.72,15.42c1.42-2.92,4.81-9.91,5.94-12.22.77-3.38-1.24-44.49-2.94-74.6Z" transform="translate(14.28 5.52)"/><path class="cls-38" d="M958.9,439.87l-34.06-9.66,5.27-10.86L964.44,436l-.81,1.66C962.25,440.54,958.9,439.87,958.9,439.87Z" transform="translate(14.28 5.52)"/><path class="cls-35" d="M959.74,441.39a6,6,0,0,1-1.12-.1l-.11,0-34.07-9.65a1.44,1.44,0,0,1-.92-.8,1.47,1.47,0,0,1,0-1.23l5.28-10.86a1.44,1.44,0,0,1,1.94-.67l34.32,16.68a1.45,1.45,0,0,1,.67,1.94l-.81,1.67A5.57,5.57,0,0,1,959.74,441.39Zm-.51-2.94a2.87,2.87,0,0,0,3.09-1.38l.18-.36-31.72-15.42-3.88,8Z" transform="translate(14.28 5.52)"/><path class="cls-38" d="M906,311.53S842.09,356,840.77,358.38l.83-.08c23.66-2.53,42-14,52.39-22.15Z" transform="translate(14.28 5.52)"/><path class="cls-35" d="M840.77,359.83a1.44,1.44,0,0,1-1.27-2.14c.34-.63,1-1.81,33.52-24.82,16-11.29,32-22.42,32.11-22.53a1.45,1.45,0,0,1,2.13,1.82l-12,24.62a1.34,1.34,0,0,1-.4.51c-11.28,8.85-29.64,19.94-53.14,22.45h-.14l-.7.07Zm61.45-43.93c-20.57,14.34-47.25,33.18-56.77,40.44,20.72-3.17,37-13,47.38-21.12Z" transform="translate(14.28 5.52)"/><path class="cls-38" d="M967.89,341.64,956.83,364.4c-.27,12.76,1.52,35.55,14.73,56.85C972.38,419,967.89,341.64,967.89,341.64Z" transform="translate(14.28 5.52)"/><path class="cls-35" d="M971.56,422.7a1.47,1.47,0,0,1-1.24-.69c-13.59-21.92-15.19-45.52-14.94-57.64a1.4,1.4,0,0,1,.15-.6L966.59,341a1.45,1.45,0,0,1,2.75.55c0,.19,1.13,19.57,2.14,39,2,39.54,1.65,40.63,1.44,41.21a1.44,1.44,0,0,1-1.22.95Zm-13.29-57.95c-.19,11,1.21,31.45,11.89,51.2-.31-12.21-2-44.08-3.39-68.67Z" transform="translate(14.28 5.52)"/><path class="cls-38" d="M967.37,268l-7.78,16a12.26,12.26,0,0,1,3.39,3.42l16.83-6.11A30,30,0,0,0,967.37,268Z" transform="translate(14.28 5.52)"/><path class="cls-35" d="M963,288.88a1.43,1.43,0,0,1-1.21-.65,10.88,10.88,0,0,0-3-3,1.45,1.45,0,0,1-.49-1.84l7.77-16a1.47,1.47,0,0,1,.87-.75,1.42,1.42,0,0,1,1.14.12,31.4,31.4,0,0,1,13,13.95,1.41,1.41,0,0,1,0,1.17,1.44,1.44,0,0,1-.84.82l-16.84,6.11A1.4,1.4,0,0,1,963,288.88Zm-1.56-5.32a13.65,13.65,0,0,1,2.09,2.14l14.26-5.18A28.38,28.38,0,0,0,968,270.07Z" transform="translate(14.28 5.52)"/><path class="cls-38" d="M951.62,281.91a12.28,12.28,0,0,1,4.79.55l7.77-16A30,30,0,0,0,946,264.9Z" transform="translate(14.28 5.52)"/><path class="cls-35" d="M956.41,283.91a1.62,1.62,0,0,1-.44-.07,10.81,10.81,0,0,0-4.23-.48,1.47,1.47,0,0,1-1.5-1l-5.59-17a1.45,1.45,0,0,1,.12-1.17,1.43,1.43,0,0,1,.94-.7,31.32,31.32,0,0,1,19,1.64,1.43,1.43,0,0,1,.8.82,1.48,1.48,0,0,1,0,1.15l-7.78,16A1.45,1.45,0,0,1,956.41,283.91Zm-3.75-3.49a13.52,13.52,0,0,1,3,.33l6.56-13.5A28.37,28.37,0,0,0,947.92,266l4.74,14.41Z" transform="translate(14.28 5.52)"/><path class="cls-38" d="M943.37,286a12.52,12.52,0,0,1,4.78-3.29l-5.53-16.83a30.15,30.15,0,0,0-15.44,12.25Z" transform="translate(14.28 5.52)"/><path class="cls-35" d="M943.37,287.45a1.56,1.56,0,0,1-.63-.14l-16.19-7.87a1.44,1.44,0,0,1-.76-.91,1.46,1.46,0,0,1,.17-1.17,31.63,31.63,0,0,1,16.18-12.84,1.44,1.44,0,0,1,1.86.91l5.53,16.83a1.44,1.44,0,0,1-.86,1.8,11,11,0,0,0-4.22,2.91A1.46,1.46,0,0,1,943.37,287.45Zm-14-9.89,13.74,6.68a13.89,13.89,0,0,1,3.31-2.32l-4.65-14.14A28.85,28.85,0,0,0,929.32,277.56Z" transform="translate(14.28 5.52)"/><path class="cls-38" d="M964.49,290.65a12.47,12.47,0,0,1,.37,5.8L981,304.32a30,30,0,0,0,.1-19.71Z" transform="translate(14.28 5.52)"/><path class="cls-35" d="M981,305.76a1.38,1.38,0,0,1-.63-.14l-16.19-7.87a1.45,1.45,0,0,1-.79-1.55,11,11,0,0,0-.32-5.12,1.44,1.44,0,0,1,.89-1.79l16.65-6.05a1.45,1.45,0,0,1,1.12.06,1.48,1.48,0,0,1,.75.84,31.73,31.73,0,0,1-.11,20.66,1.48,1.48,0,0,1-.82.86A1.45,1.45,0,0,1,981,305.76ZM966.43,295.6l13.74,6.68a28.72,28.72,0,0,0,0-15.79l-14,5.08A13.65,13.65,0,0,1,966.43,295.6Z" transform="translate(14.28 5.52)"/><path class="cls-38" d="M874.72,414.15,891,380.71a12.72,12.72,0,1,0-22.88-11.13L851.84,403Z" transform="translate(14.28 5.52)"/><path class="cls-35" d="M874.72,415.59a1.38,1.38,0,0,1-.63-.14l-22.88-11.12a1.45,1.45,0,0,1-.67-1.94L866.79,369a14.17,14.17,0,0,1,25.49,12.39L876,414.78a1.51,1.51,0,0,1-.83.74A1.59,1.59,0,0,1,874.72,415.59Zm-20.94-13.24,20.27,9.86,15.62-32.14a11.27,11.27,0,0,0-20.27-9.85Z" transform="translate(14.28 5.52)"/><path class="cls-38" d="M929.37,440.71l16.26-33.44a12.72,12.72,0,1,0-22.88-11.12l-16.26,33.44Z" transform="translate(14.28 5.52)"/><path class="cls-35" d="M929.37,442.16a1.41,1.41,0,0,1-.63-.14l-22.88-11.13a1.41,1.41,0,0,1-.74-.83,1.45,1.45,0,0,1,.07-1.1l16.26-33.44a14.17,14.17,0,1,1,25.48,12.39l-16.25,33.44A1.46,1.46,0,0,1,929.37,442.16Zm-20.94-13.24,20.27,9.86,15.63-32.14a11.29,11.29,0,0,0-5.22-15.06,11.27,11.27,0,0,0-15.06,5.2Z" transform="translate(14.28 5.52)"/><path class="cls-38" d="M852.49,417.18l10.68,5.19c-3.53,21.64-19.49,28.1-19.49,28.1C837.43,431.79,852.49,417.18,852.49,417.18Z" transform="translate(14.28 5.52)"/><path class="cls-35" d="M843.68,451.92a1.46,1.46,0,0,1-.61-.13,1.44,1.44,0,0,1-.76-.86c-2.68-8-1.95-16.57,2.13-24.76a39.58,39.58,0,0,1,7-10,1.45,1.45,0,0,1,1.64-.27l10.68,5.2a1.44,1.44,0,0,1,.8,1.53c-1.89,11.57-7.29,18.88-11.49,23a30.78,30.78,0,0,1-8.88,6.24A1.49,1.49,0,0,1,843.68,451.92Zm9.13-33a39.28,39.28,0,0,0-5.81,8.6c-3.48,7-4.29,14-2.43,20.86a31,31,0,0,0,6.62-5,37.45,37.45,0,0,0,10.36-20.2Zm.69-.73Z" transform="translate(14.28 5.52)"/><path class="cls-38" d="M861.49,421.55,854.16,418c-3.17,5.18-7.62,14.36-6.6,23.82C847.56,441.81,856.22,435.93,861.49,421.55Z" transform="translate(14.28 5.52)"/><path class="cls-35" d="M847.56,443.26a1.42,1.42,0,0,1-.61-.13,1.47,1.47,0,0,1-.84-1.16c-1-9.57,3.14-18.73,6.82-24.74a1.45,1.45,0,0,1,1.87-.54l7.33,3.56a1.45,1.45,0,0,1,.72,1.8c-5.37,14.65-14.11,20.71-14.48,21A1.41,1.41,0,0,1,847.56,443.26Zm7.17-23.38c-2.5,4.32-5.81,11.44-5.87,18.94a45.67,45.67,0,0,0,10.81-16.54Z" transform="translate(14.28 5.52)"/><polygon class="cls-38" points="879.43 428.85 864.39 421.54 867.14 416.88 881.4 423.81 879.43 428.85"/><path class="cls-35" d="M865.15,424.78a1.56,1.56,0,0,1-.63-.14l-15-7.32a1.42,1.42,0,0,1-.76-.88,1.51,1.51,0,0,1,.14-1.16l2.75-4.66a1.45,1.45,0,0,1,1.88-.56L867.76,417a1.44,1.44,0,0,1,.71,1.83l-2,5a1.45,1.45,0,0,1-1.35.92Zm-13-9.38,12.21,5.94.92-2.33-11.86-5.76Z" transform="translate(14.28 5.52)"/><path class="cls-38" d="M871.75,412.7l-2.43,5a1.49,1.49,0,0,1-2,.69l-14.68-7.13a1.48,1.48,0,0,1-.68-2l2.43-5Z" transform="translate(14.28 5.52)"/><path class="cls-35" d="M868,420a2.92,2.92,0,0,1-1.28-.29L852,412.57a2.95,2.95,0,0,1-1.36-3.93l2.44-5A1.44,1.44,0,0,1,855,403l17.35,8.44a1.44,1.44,0,0,1,.67,1.93l-2.43,5A3,3,0,0,1,868,420Zm-12.9-13.79-1.8,3.7s0,0,0,0L868,417.09a0,0,0,0,0,0,0l1.8-3.7Z" transform="translate(14.28 5.52)"/><path class="cls-38" d="M907.14,443.75l10.68,5.19c-3.53,21.64-19.49,28.1-19.49,28.1C892.08,458.36,907.14,443.75,907.14,443.75Z" transform="translate(14.28 5.52)"/><path class="cls-35" d="M898.33,478.49a1.41,1.41,0,0,1-.6-.13,1.45,1.45,0,0,1-.77-.86c-2.68-8-1.94-16.57,2.14-24.76a39.41,39.41,0,0,1,7-10,1.46,1.46,0,0,1,1.65-.27l10.68,5.19a1.45,1.45,0,0,1,.79,1.54c-1.89,11.57-7.29,18.88-11.48,23a30.64,30.64,0,0,1-8.89,6.24A1.5,1.5,0,0,1,898.33,478.49Zm9.14-33a39,39,0,0,0-5.82,8.61c-3.48,7-4.29,14-2.43,20.86a31,31,0,0,0,6.62-5,37.6,37.6,0,0,0,10.37-20.21Z" transform="translate(14.28 5.52)"/><path class="cls-38" d="M916.14,448.12l-7.33-3.56c-3.17,5.18-7.62,14.36-6.6,23.82C902.21,468.38,910.87,462.49,916.14,448.12Z" transform="translate(14.28 5.52)"/><path class="cls-35" d="M902.21,469.83a1.48,1.48,0,0,1-1.45-1.3c-1.07-10.07,3.81-19.82,6.82-24.73a1.45,1.45,0,0,1,1.87-.55l7.33,3.57a1.44,1.44,0,0,1,.72,1.8c-5.37,14.64-14.11,20.71-14.48,21A1.49,1.49,0,0,1,902.21,469.83Zm7.17-23.39c-2.5,4.32-5.8,11.44-5.87,18.95a45.67,45.67,0,0,0,10.81-16.54Z" transform="translate(14.28 5.52)"/><polygon class="cls-38" points="934.08 455.42 919.04 448.1 921.79 443.44 936.05 450.38 934.08 455.42"/><path class="cls-35" d="M919.8,451.35a1.42,1.42,0,0,1-.63-.15l-15-7.31a1.44,1.44,0,0,1-.76-.88,1.51,1.51,0,0,1,.14-1.16l2.75-4.66a1.45,1.45,0,0,1,1.88-.57l14.26,6.94a1.45,1.45,0,0,1,.72,1.83l-2,5a1.44,1.44,0,0,1-.82.82A1.39,1.39,0,0,1,919.8,451.35Zm-13-9.38L919,447.91l.91-2.33-11.85-5.76Z" transform="translate(14.28 5.52)"/><path class="cls-38" d="M926.4,439.27l-2.43,5a1.49,1.49,0,0,1-2,.69l-14.67-7.13a1.49,1.49,0,0,1-.69-2l2.43-5Z" transform="translate(14.28 5.52)"/><path class="cls-35" d="M922.62,446.56a3,3,0,0,1-1.28-.3l-14.67-7.13a3,3,0,0,1-1.36-3.92l2.44-5a1.45,1.45,0,0,1,1.94-.67L927,438a1.44,1.44,0,0,1,.67,1.94l-2.43,5A3,3,0,0,1,922.62,446.56Zm-12.9-13.79-1.8,3.7a0,0,0,0,0,0,.06l14.67,7.13s0,0,.06,0l1.79-3.69Z" transform="translate(14.28 5.52)"/><path class="cls-38" d="M942.24,304.91l-8.86-4.31a2.12,2.12,0,0,0-2.85,1l-10.32,21.23a2.14,2.14,0,0,0,1,2.86l8.87,4.31Z" transform="translate(14.28 5.52)"/><path class="cls-35" d="M930.05,331.43a1.45,1.45,0,0,1-.63-.15L920.56,327a3.59,3.59,0,0,1-1.66-4.79L929.22,301a3.59,3.59,0,0,1,4.79-1.66l8.87,4.31a1.46,1.46,0,0,1,.73.83,1.47,1.47,0,0,1-.06,1.11l-12.19,25.07A1.45,1.45,0,0,1,930.05,331.43Zm2.4-29.6a.68.68,0,0,0-.62.39l-10.32,21.23a.64.64,0,0,0,0,.52.66.66,0,0,0,.34.39l7.57,3.68,10.92-22.46-7.56-3.68A.66.66,0,0,0,932.45,301.83Z" transform="translate(14.28 5.52)"/><path class="cls-38" d="M950.69,309l8.86,4.31a2.13,2.13,0,0,1,1,2.85L950.22,337.4a2.13,2.13,0,0,1-2.85,1l-8.87-4.31Z" transform="translate(14.28 5.52)"/><path class="cls-35" d="M948.3,340.06a3.41,3.41,0,0,1-1.56-.37l-8.87-4.3a1.44,1.44,0,0,1-.67-1.94l12.19-25.07a1.41,1.41,0,0,1,.83-.74,1.45,1.45,0,0,1,1.1.07l8.87,4.31a3.59,3.59,0,0,1,1.66,4.78L951.52,338a3.57,3.57,0,0,1-2,1.82A3.64,3.64,0,0,1,948.3,340.06Zm-7.86-6.65,7.56,3.68a.7.7,0,0,0,.92-.32l10.32-21.23a.68.68,0,0,0-.32-.91L951.36,311Z" transform="translate(14.28 5.52)"/></g></g></svg>