<svg width="143" height="79" viewBox="0 0 143 79" fill="none" xmlns="http://www.w3.org/2000/svg">
<path d="M89.0106 0H53.9825C50.4036 0 47.5023 2.90188 47.5023 6.48152V41.5166C47.5023 45.0962 50.4036 47.9981 53.9825 47.9981H89.0106C92.5895 47.9981 95.4908 45.0962 95.4908 41.5166V6.48152C95.4908 2.90188 92.5895 0 89.0106 0Z" fill="#005961"/>
<path d="M47.5 41.5185C47.5 43.2375 48.1827 44.8861 49.398 46.1016C49.9998 46.7035 50.7141 47.1809 51.5004 47.5066C52.2866 47.8324 53.1292 48 53.9802 48H89.0179C90.7367 48 92.3852 47.3172 93.6007 46.1017C94.8163 44.8863 95.4995 43.2377 95.5 41.5185V6.48343C95.5 4.76392 94.8171 3.11483 93.6014 1.89895C92.3858 0.683074 90.737 0 89.0179 0C71.2159 9.20805 56.7095 23.7147 47.5 41.5185Z" fill="#0A8080"/>
<path d="M77.8158 12.9277L74.5115 16.2325L71.4809 19.2618L68.479 16.2574L65.148 12.9277H77.8158Z" fill="#F45D48"/>
<path d="M67.6906 20.373L66.6459 26.7684L61.4419 22.059V21.9575H61.3405L61.4419 22.059V38.346H55.6542V8.85287L67.6906 20.373Z" fill="white"/>
<path d="M74.9622 38.339L74.9565 38.3447L71.4782 41.8256L67.9979 38.3466V38.3447L69.7907 22.383H73.1714L74.9622 38.339Z" fill="white"/>
<path d="M75.3066 20.373L76.3531 26.7684L81.5572 22.059V21.9575H81.6586L81.5572 22.059V38.346H87.3429V8.85287L75.3066 20.373Z" fill="white"/>
<path d="M5.98437 71.6362L4.6318 67.8791C4.66937 68.9099 4.68777 70.1623 4.68698 71.6362V78.3966H0.714996V59.2753H4.69285L7.09389 65.6213L8.41828 69.3467C8.80495 68.1726 9.24641 66.9202 9.74267 65.5896L12.1425 59.2706H16.1439V78.3966H12.1378V71.6092L12.193 67.9119C11.8259 69.0156 11.3845 70.248 10.8686 71.6092L10.1242 73.5406H6.70291L5.98437 71.6362Z" fill="#525257"/>
<path d="M26.7345 73.9826H23.2579L22.4361 78.3972H18.3467L22.3198 59.2758H27.6726L31.6457 78.3972H27.5622L26.7345 73.9826ZM26.0723 70.4779C25.5016 67.5168 25.1428 65.1624 24.9956 63.4145C24.7937 65.3831 24.4352 67.7376 23.9201 70.4779H26.0723Z" fill="#525257"/>
<path d="M46.0475 59.2758V78.3972H42.0743L39.5077 71.8305C39.2142 71.0947 38.943 70.382 38.6941 69.6924C38.4452 69.0029 38.2381 68.4185 38.073 67.9395C37.907 67.462 37.7646 67.0437 37.6456 66.6844C37.5266 66.3251 37.4346 66.0355 37.3697 65.8156C37.3352 65.6846 37.2937 65.5557 37.2452 65.4293C37.7055 66.8092 37.9356 69.4396 37.9356 73.3204V78.3972H33.8521V59.2758H37.9356L40.4458 65.677C41.6051 68.6397 42.3318 70.755 42.6261 72.023C42.1847 70.3503 41.9639 67.7016 41.9639 64.0767V59.2758H46.0475Z" fill="#525257"/>
<path d="M56.6428 73.9826H53.1663L52.3374 78.3972H48.2515L52.227 59.2758H57.5797L61.5541 78.3972H57.4694L56.6428 73.9826ZM55.9794 70.4779C55.4104 67.5168 55.0519 65.1624 54.904 63.4145C54.702 65.3831 54.3431 67.7376 53.8273 70.4779H55.9794Z" fill="#525257"/>
<path d="M63.4842 63.9394C63.4842 62.4311 63.9719 61.2308 64.9472 60.3385C65.9225 59.4462 67.3572 59 69.2514 59C71.1464 59 72.5859 59.4462 73.5698 60.3385C74.5537 61.2308 75.0456 62.4311 75.0456 63.9394V65.319H70.9116V64.1602C70.9116 63.2412 70.3598 62.7814 69.2561 62.7806C68.1713 62.7806 67.6284 63.2405 67.6276 64.1602V73.5131C67.6276 74.4336 68.1795 74.8934 69.2831 74.8926C70.3696 74.8926 70.9124 74.4328 70.9116 73.5131V70.9195H69.417V67.3326H75.021V78.3973H71.1312V76.5481C71.1135 76.7111 71.0567 76.8674 70.9656 77.0037C70.8224 77.2397 70.6508 77.4573 70.4549 77.6518C70.1706 77.9257 69.8323 78.1372 69.4616 78.2729C68.9912 78.4546 68.49 78.5435 67.9857 78.5347C66.4985 78.5347 65.3765 78.1042 64.6196 77.2432C63.8627 76.3822 63.4854 75.2324 63.4878 73.7937L63.4842 63.9394Z" fill="#525257"/>
<path d="M87.9035 78.3972H78.2184V59.2758H87.9035V62.8627H82.3571V66.9204H87.158V70.5073H82.3571V74.8104H87.9035V78.3972Z" fill="#525257"/>
<path d="M95.5182 71.6649H94.6623V78.3972H90.5189V59.2758H95.982C97.877 59.2758 99.3164 59.722 100.3 60.6143C101.284 61.5066 101.778 62.7085 101.781 64.2199V66.7302C101.781 68.6612 101.018 70.0501 99.4913 70.897L102.222 78.4019H97.6703L95.5182 71.6649ZM94.6623 68.078H95.9866C97.0903 68.078 97.6421 67.6182 97.6421 66.6985V64.2423C97.6421 63.3225 97.0903 62.8627 95.9866 62.8627H94.6623V68.078Z" fill="#525257"/>
<path d="M104.707 78.3972V59.2758H108.901V78.3972H104.707Z" fill="#525257"/>
<path d="M123.689 59.2758V73.7302C123.689 75.2393 123.193 76.4396 122.199 77.3312C121.206 78.2227 119.762 78.6689 117.868 78.6696C115.973 78.6696 114.534 78.2235 113.55 77.3312C112.566 76.4388 112.073 75.2385 112.073 73.7302V59.2758H116.239V73.5412C116.239 74.4609 116.782 74.9207 117.868 74.9207C118.97 74.9207 119.522 74.4609 119.523 73.5412V59.2758H123.689Z" fill="#525257"/>
<path d="M132.131 71.6362L130.779 67.8791C130.815 68.9099 130.833 70.1623 130.834 71.6362V78.3966H126.861V59.2753H130.834L133.235 65.6213L134.559 69.3467C134.946 68.1726 135.388 66.9202 135.884 65.5896L138.284 59.2706H142.285V78.3966H138.284V71.6092L138.339 67.9119C137.972 69.0156 137.53 70.248 137.014 71.6092L136.27 73.5406H132.849L132.131 71.6362Z" fill="#525257"/>
</svg>
