<?xml version="1.0" encoding="utf-8"?>
<!-- Generator: Adobe Illustrator 26.0.3, SVG Export Plug-In . SVG Version: 6.00 Build 0)  -->
<svg version="1.1" id="Layer_1" xmlns="http://www.w3.org/2000/svg" xmlns:xlink="http://www.w3.org/1999/xlink" x="0px" y="0px"
	 viewBox="0 0 192 192" style="enable-background:new 0 0 192 192;" xml:space="preserve">
<style type="text/css">
	.st0{fill:#13264D;}
	.st1{fill:#183870;}
	.st2{fill:#FF0000;}
	.st3{fill:#FFFFFF;}
</style>
<g>
	<g>
		<path class="st0" d="M156.09,13.68H35.91c-12.28,0-22.23,9.95-22.23,22.23v120.17c0,12.28,9.95,22.23,22.23,22.23h120.17
			c12.28,0,22.23-9.95,22.23-22.23V35.91C178.32,23.64,168.36,13.68,156.09,13.68z"/>
		<path class="st1" d="M13.68,156.09c0,1.48,0.15,9.36,6.51,15.72c6.36,6.36,14.24,6.51,15.72,6.51h120.17
			c12.28,0,22.23-9.95,22.23-22.23V35.91c0-12.28-9.95-22.23-22.23-22.23c-22.14,11.46-53.08,30.62-83.63,61.53
			C43.25,104.76,24.88,134.44,13.68,156.09z"/>
	</g>
	<g>
		<polygon class="st2" points="117.67,58.01 106.33,69.35 95.94,79.74 85.64,69.44 74.21,58.01 		"/>
		<g>
			<polygon class="st3" points="82.93,83.56 79.35,105.49 61.49,89.34 61.49,88.99 61.14,88.99 61.49,89.34 61.49,145.2 
				41.64,145.2 41.64,44.04 			"/>
			<polygon class="st3" points="107.89,145.19 107.87,145.2 95.93,157.15 83.99,145.21 83.99,145.2 90.14,90.45 101.74,90.45 			"/>
		</g>
		<polygon class="st3" points="109.07,83.56 112.65,105.49 130.51,89.34 130.51,88.99 130.86,88.99 130.51,89.34 130.51,145.2 
			150.36,145.2 150.36,44.04 		"/>
	</g>
</g>
</svg>
